<svg xmlns="http://www.w3.org/2000/svg" width="256" height="256"><path fill="#1976D2" fill-opacity=".016" fill-rule="evenodd" d="M0 128.004v128.004l128.25-.254 128.25-.254.254-127.75L257.008 0H0zm.485.496c0 70.4.119 99.053.265 63.672s.146-92.98 0-128S.485 58.1.485 128.5"/><path fill="#1976D2" fill-opacity=".37" fill-rule="evenodd" d="M125.422 45.911c-.82.821-.408 5.247.678 7.276.605 1.131 1.292 4.814 1.526 8.184.406 5.856.288 6.241-2.653 8.646-5.72 4.678-5.52 11.644.565 19.622 2.166 2.84 2.462 4.241 2.462 11.664v8.436l4.957.111c4.049.092 5.239-.291 6.5-2.091 1.886-2.694 2.012-8.735.232-11.17-1.154-1.578-1.278-1.332-1.033 2.059.278 3.848.277 3.849-.561.608-.462-1.784-1.441-3.968-2.176-4.853-.825-.995-1.492-5.193-1.746-10.992-.371-8.486-.232-9.44 1.458-9.978 1.028-.328 2.994-1.061 4.369-1.629l2.5-1.033-2.25-.853c-1.238-.47-2.25-1.338-2.25-1.931 0-.669-1.423-.885-3.75-.571-2.062.278-2.963.266-2-.028s1.8-.839 1.861-1.211.281-3.047.488-5.943c.207-2.897 1.066-6.32 1.909-7.607 1.068-1.628 1.272-3.048.672-4.669-.746-2.018-1.56-2.338-6.099-2.399-2.88-.038-5.427.12-5.659.352M92.5 54.942c-21.585 3.841-42.033 10.955-56.978 19.824-7.839 4.652-23.981 19.305-26.42 23.984L7.93 101l9.785.078c5.382.042 27.225.282 48.54.532 26.612.312 39.386.117 40.768-.623 1.942-1.038 2.004-1.908 1.745-24.282L108.5 53.5l-3-.168c-1.65-.093-7.5.632-13 1.61M152 76.871V101h101.07l-1.093-2.043c-2.24-4.186-14.236-15.886-21.237-20.713-17.664-12.179-47.421-22.506-71.49-24.809l-7.25-.693zm-17.429 28.7c-2.285 2.286-1.928 3.062.429.929 1.1-.995 2-1.965 2-2.155 0-.743-.927-.275-2.429 1.226M7.256 113.637C3.083 115.704 0 120.73 0 125.468 0 130.15 5.276 136 9.499 136c3.105 0 8.848-2.508 10.613-4.634 1.895-2.285-.502-4.119-2.618-2.003-1.954 1.954-5.905 3.077-8 2.273-4.621-1.773-3.901-12.582.986-14.809 3.136-1.429 7.229-.319 8.021 2.175.348 1.099 1.304 1.998 2.124 1.998 1.128 0 1.415-.997 1.182-4.106l-.307-4.107-5.5-.378c-3.701-.255-6.561.147-8.744 1.228m19.067-.036c-.338.88-.045 1.953.651 2.383 1.652 1.021-1.834 16.013-3.724 16.015C22.563 132 22 132.9 22 134c0 1.852.667 2 8.98 2h8.979l2.11-4.136c2.543-4.983.977-7.107-2.458-3.333-1.161 1.276-3.573 2.614-5.361 2.974-3.658.736-3.973-.14-2.341-6.505a261 261 0 0 0 1.513-6.25c.339-1.513 1.283-2.75 2.097-2.75S37 115.1 37 114c0-1.735-.667-2-5.031-2-3.691 0-5.195.427-5.646 1.601m21 0c-.338.88-.006 1.977.737 2.436 1.092.675 1.134 1.757.217 5.649-.624 2.648-1.4 6.051-1.725 7.564-.324 1.512-1.257 2.75-2.071 2.75S43 132.9 43 134c0 1.735.667 2 5.031 2 3.691 0 5.195-.427 5.646-1.601.338-.88.023-1.967-.701-2.414C51.171 130.87 54.558 116 56.617 116c.761 0 1.383-.9 1.383-2 0-1.735-.667-2-5.031-2-3.691 0-5.195.427-5.646 1.601m14 0c-.338.88-.078 1.933.578 2.338.913.564.83 2.476-.353 8.149-.851 4.077-1.547 7.472-1.547 7.545-.001.074-.948.381-2.106.684-3.579.936-1.557 3.172 3.009 3.328 3.042.104 4.411-.302 4.848-1.44.334-.872.077-1.762-.572-1.978-1.497-.499-1.491-2.456.024-7.512l1.203-4.018 3.547 7.402c2.66 5.552 4.046 7.401 5.546 7.401 1.706 0 2.243-1.218 3.653-8.276C81.318 116.386 81.5 116 84.469 116c1.392 0 2.531.245 2.531.544 0 3.002-3.714 14.357-5.15 15.745-1.017.984-1.85 2.221-1.85 2.75 0 1.055 7.892 1.323 10.418.354 2.01-.771 2.073-3.393.082-3.393-1.81 0-1.817.158.378-8.258 1.025-3.931 2.57-7.355 3.692-8.183 3.522-2.599.465-3.66-9.648-3.349-7.833.242-9.452.568-9.718 1.956-.175.916.291 1.816 1.035 2 1.044.258 1.158 1.303.498 4.584-.47 2.338-1.178 4.25-1.573 4.25-.396 0-1.993-2.925-3.551-6.5-2.693-6.182-2.999-6.5-6.254-6.5-2.215 0-3.638.565-4.036 1.601m40.604.643c-11.908 7.932-5.741 25.15 7.449 20.797 3.908-1.29 7.124-4.424 6.152-5.996-.44-.711-1.544-.391-3.233.937-7.509 5.907-14.453-2.936-8.532-10.866 2.609-3.494 8.258-3.707 9.724-.366.543 1.237 1.698 2.25 2.567 2.25 1.276 0 1.471-.791 1.013-4.104l-.567-4.104-5.573-.415c-4.577-.342-6.186-.008-9 1.867m22.541 7.352c-3.194 5.278-6.405 9.826-7.137 10.107S116 133.066 116 134.107c0 1.544.743 1.893 4.031 1.893 4.22 0 6.561-2.398 3.929-4.025-1.098-.678-1.102-1.099-.023-2.399 1.73-2.085 7.655-2.081 8.456.006.851 2.218.786 2.418-.786 2.418-1.497 0-2.984 2.7-1.813 3.294.388.198 2.619.471 4.958.609 3.212.189 4.409-.16 4.896-1.427.354-.923.19-1.97-.363-2.327-.554-.357-1.332-2.899-1.728-5.649-1.733-12.028-2.586-14.5-5.003-14.5-1.812 0-3.473 1.971-8.086 9.596m31.855-7.995c-.338.88-.014 1.972.72 2.426 1.086.671 1.113 1.784.146 5.975-1.766 7.649-1.513 9.598 1.561 12.021 2.11 1.663 3.64 2.049 6.578 1.657 6.372-.85 7.495-2.47 10.699-15.43.666-2.698 1.611-4.25 2.585-4.25.921 0 1.402-.699 1.203-1.75-.24-1.265-1.471-1.833-4.444-2.051-3.441-.252-4.198.033-4.647 1.75-.353 1.35-.056 2.051.87 2.051 1.743 0 1.746-.101-.183 7.356-1.861 7.194-2.853 8.644-5.911 8.644-3.549 0-4.773-2.231-3.659-6.674a353 353 0 0 0 1.578-6.576c.34-1.513 1.286-2.75 2.1-2.75s1.481-.9 1.481-2c0-1.735-.667-2-5.031-2-3.691 0-5.195.427-5.646 1.601m25.25.069c-.352.919-.127 1.988.502 2.376 2.174 1.344-1.171 15.954-3.653 15.954-.782 0-1.422.9-1.422 2 0 1.735.667 2 5.031 2 3.691 0 5.195-.427 5.646-1.601.338-.88.073-1.936-.589-2.345-1.297-.801-.486-6.054.935-6.054.443 0 2.19 2.25 3.882 5 2.313 3.759 3.673 5 5.479 5 3.635 0 3.87-2.517.565-6.055-3.591-3.843-3.626-4.316-.429-5.772 3.183-1.45 4.878-5.56 3.419-8.286-1.483-2.773-5.037-3.887-12.397-3.887-4.989 0-6.464.353-6.969 1.67m25.02-.051c-.363.946-.147 2.038.48 2.426 1.91 1.181-1.519 15.955-3.703 15.955-.753 0-1.37.826-1.37 1.836 0 2.495 7.745 2.992 8.679.557.337-.877.036-1.951-.669-2.387-1.316-.813-1.12-2.408 1.292-10.506 1.177-3.951 1.198-3.892 1.695 4.76.277 4.819.953 8.828 1.503 8.909s2.8-3.268 5-7.445c4.477-8.498 5.974-10.507 4.586-6.15-.512 1.609-1.212 4.614-1.554 6.676-.387 2.329-1.174 3.75-2.077 3.75-.8 0-1.455.9-1.455 2 0 1.706.667 2 4.531 2 3.233 0 4.708-.459 5.146-1.601.338-.88.167-1.893-.381-2.25-1.7-1.109 1.492-14.391 3.908-16.262 2.962-2.293 1.41-3.887-3.785-3.887-4.225 0-4.621.249-7.431 4.679-1.632 2.574-3.309 5.611-3.727 6.75-.532 1.447-.912.114-1.261-4.429l-.5-6.5-4.123-.301c-3.161-.231-4.278.1-4.784 1.42m28.73-.018c-.338.88-.019 1.969.709 2.419 1.085.67 1.098 1.865.074 6.649-1.859 8.685-2.114 9.331-3.673 9.331-.788 0-1.433.9-1.433 2 0 1.866.667 2 9.98 2h9.979l2.102-4.119c1.54-3.019 1.805-4.415.991-5.229s-1.704-.388-3.331 1.597c-2.559 3.121-10.732 5.127-10.707 2.629.051-5.139 3.199-7.994 4.276-3.878.287 1.1.998 2 1.578 2 1.225 0 3.408-7.358 2.915-9.825-.287-1.438-.609-1.357-2.281.575-2.259 2.611-5.027 3.061-4.109.668.334-.87.607-2.22.607-3 0-2.131 5.298-1.758 8.273.582 3.624 2.851 5.093 2.594 4.255-.744-1.2-4.783-2.207-5.256-11.182-5.256-6.788 0-8.527.309-9.023 1.601m-46.321 4.895c-1.392 3.661-1.387 3.668 2.248 3.317 2.716-.262 3.25-.723 3.25-2.813 0-3.702-4.138-4.082-5.498-.504m-60.248 2.894-1.722 3.61h2.484c2.543 0 2.784-.722 1.622-4.86-.634-2.262-.735-2.209-2.384 1.25M127 131c0 .55.45 1 1 1s1-.45 1-1-.45-1-1-1-1 .45-1 1m4.031 8.25c-.693 1.724-.919 1.841-.968.5-.034-.963-.576-1.75-1.203-1.75-.82 0-.957 2.68-.489 9.525.609 8.912.489 9.829-1.86 14.242-3.089 5.803-3.15 8.668-.294 13.772 1.927 3.441 2.288 5.93 2.75 18.961.442 12.43.79 15 2.033 15 .991 0 1.601-1.188 1.797-3.5.164-1.925.951-4.918 1.75-6.651 1.896-4.111 1.84-9.29-.166-15.422-1.182-3.614-1.507-7.443-1.203-14.188.35-7.795.837-9.956 3.118-13.827 3.607-6.12 3.706-12.539.252-16.266-2.999-3.236-4.337-3.332-5.517-.396m4.944 5.954c-.265 2.586-.112 4.333.34 3.881s.669-2.568.482-4.703l-.339-3.882zM8.619 146.25c9.444 16.018 32.395 31.198 59.881 39.605 10.482 3.206 27.847 6.776 35.5 7.299l4.5.308.283-21.981c.155-12.09.034-22.993-.27-24.231l-.551-2.25h-50.04c-39.758 0-49.889.257-49.303 1.25M152 169.148v24.148l7.801-.601c24.532-1.892 56.711-13.571 74.477-27.032 9.958-7.544 17.722-16.038 17.722-19.386 0-1.019-10.093-1.277-50-1.277h-50z"/><path fill="#1976D2" fill-opacity=".133" fill-rule="evenodd" d="M126.75 46.689c-.963.252-1.75 1.235-1.75 2.185 0 2.304 2.276 7.108 3.372 7.118.48.004.313.683-.372 1.508-.86 1.036-.898 1.5-.122 1.5.617 0 1.178-.45 1.247-1s.181-1.525.25-2.167.688-1.354 1.375-1.583c.918-.306 1.25 1.384 1.25 6.367 0 8.151 1.722 7.616 2.367-.736.236-3.071 1.038-6.564 1.782-7.763 1.153-1.859 1.131-2.319-.149-3.133-1.333-.848-1.333-.964 0-1.04 1.01-.058.847-.366-.5-.945-2.142-.92-5.906-1.054-8.75-.311m2 1c-2.162.565-2.221 1.697-.193 3.725 1.779 1.779 5.626 1.537 6.27-.395.238-.713-.025-1.015-.584-.669s-1.25-.267-1.536-1.361c-.527-2.016-.832-2.116-3.957-1.3M153 77v24h49.5c27.225 0 49.5-.297 49.5-.659s-1.834-3.088-4.076-6.058c-11.757-15.571-39.414-30.36-69.424-37.122C169.038 55.03 157.399 53 154.635 53 153.167 53 153 55.454 153 77m-51.5-22c.34.55 1.229 1 1.976 1s1.509.454 1.694 1.01c.185.555.901.105 1.592-1 1.169-1.872 1.01-2.01-2.313-2.01-2.123 0-3.317.405-2.949 1m25.5 6c0 .55.45 1 1 1s1-.45 1-1-.45-1-1-1-1 .45-1 1m-65 3.441c0 .793.408 1.693.907 2.001.498.309.671-.34.383-1.441-.611-2.335-1.29-2.63-1.29-.56m-2.483.479c.593 1.038.386 1.257-.771.813-3.343-1.283-22.825 8.46-34.03 17.018C18.899 87.195 9 98.174 9 100.183c0 1.697 48.665.582 50.272-1.152.972-1.049.968-1.177-.022-.619-1.561.882-1.641-.621-.114-2.148.847-.847.751-1.52-.381-2.652-.834-.834-1.764-1.269-2.067-.967-.631.632-.295-15.379.371-17.645.243-.825.767-1.745 1.166-2.043s.861-1.424 1.029-2.5.679-2.559 1.138-3.294c.499-.8.328-1.804-.426-2.5-.978-.904-1.079-.846-.449.257m71.129 4.317c.26.42 2.095.763 4.08.763s3.338-.27 3.008-.6c-.895-.894-7.636-1.05-7.088-.163M128 71.465c0 .844-.366 1.535-.813 1.535-1.133 0-3.763 7.016-3.34 8.91.191.855 1.204 2.757 2.25 4.226 2.378 3.34 2.444 4.528.153 2.754-1.296-1.004-1.231-.746.25.99l2 2.346.256-6.363c.31-7.729.964-10.863 2.263-10.863.601 0 .981 6.268.981 16.174v16.175l2.338-2.197c2.024-1.901 2.242-2.765 1.62-6.424-.396-2.325-1.259-5.668-1.919-7.429-.673-1.794-1.055-6.391-.87-10.457.309-6.762.501-7.302 2.831-7.949 2.281-.633 2.21-.702-.816-.793-1.823-.055-4.186-.566-5.25-1.135-1.522-.815-1.934-.708-1.934.5m-5.965 2.469c-1.334 2.493-1.302 7.146.061 9.066.837 1.178.951.963.531-1-.294-1.375-.153-4.187.314-6.25.941-4.16.655-4.733-.906-1.816m4.305 2.621c-.328.856-.119 2.543.464 3.75.954 1.975 1.067 1.819 1.128-1.555.071-3.929-.581-4.828-1.592-2.195m13.344 24.827c-.376.98-.691 2.757-.699 3.95-.01 1.396-.289 1.737-.784.958-.564-.887-1.519-.611-3.582 1.033l-2.812 2.243 3.341-.033c2.991-.03 3.476-.444 4.625-3.948 1.282-3.911 1.204-7.573-.089-4.203M5.16 115.519c-5.985 5.035-6.387 14.107-.8 18.021 3.345 2.343 10.062 1.862 13.334-.955 3.245-2.793 2.552-4.571-.852-2.187-1.258.881-3.707 1.602-5.443 1.602-2.56 0-3.39-.563-4.392-2.983-2.204-5.321.514-12.422 4.993-13.045 3.494-.487 5.109.174 6.182 2.528 1.537 3.374 3.822 3.224 3.803-.25-.024-4.169-.961-4.797-7.593-5.09-5.351-.236-6.495.056-9.232 2.359M26 114.417c0 .779.54 1.596 1.2 1.816.929.31.913 1.743-.071 6.334-1.886 8.799-2.134 9.433-3.696 9.433-.788 0-1.433.675-1.433 1.5 0 1.222 1.664 1.5 8.98 1.5h8.979L42 131c2.344-4.595 1.002-5.373-2.588-1.5-2.894 3.123-10.108 3.729-8.939.75.378-.963 1.151-4.348 1.718-7.524.699-3.912 1.641-6.101 2.92-6.785C38.496 114.129 37.11 113 31.5 113c-4.078 0-5.5.366-5.5 1.417m21.667-.75c-1.179 1.178-.713 2.333.94 2.333.966 0 1.393.558 1.07 1.399-.295.769-1.08 4.161-1.744 7.538-.808 4.103-1.826 6.471-3.071 7.137-3.259 1.744-2.016 2.926 3.079 2.926 5.1 0 7.223-1.249 4.61-2.712-1.318-.737-1.321-1.402-.021-5.72.808-2.687 1.47-5.924 1.47-7.192 0-1.282.888-2.781 2-3.376 1.1-.589 2-1.505 2-2.035 0-1.077-9.286-1.345-10.333-.298m13.715.524c-.405.655-.206 1.368.441 1.583.647.216 1.172 1.368 1.165 2.559-.022 4.044-2.898 13.037-4.447 13.904-2.725 1.525-1.65 2.763 2.4 2.763 4.035 0 6.33-1.575 3.742-2.568-1.149-.441-1.256-1.388-.521-4.656 1.771-7.883 2.445-7.886 5.925-.026 2.282 5.153 3.735 7.25 5.023 7.25 1.88 0 2.358-1.31 4.839-13.25 1.126-5.419 1.363-5.75 4.123-5.75 3.243 0 3.336.297 1.986 6.307a600 600 0 0 0-1.519 6.943c-.318 1.512-1.244 2.75-2.058 2.75-.815 0-1.481.675-1.481 1.5 0 1.133 1.222 1.5 5 1.5 3.647 0 5-.383 5-1.417 0-.779-.492-1.58-1.092-1.78-1.489-.497 2.084-15.803 3.689-15.803.654 0 1.448-.675 1.765-1.5.488-1.272-.943-1.5-9.393-1.5-7.934 0-9.969.289-9.969 1.417 0 .779.476 1.575 1.058 1.769 1.09.363-.877 9.814-2.043 9.814-.313 0-1.844-2.925-3.402-6.5-2.671-6.133-3.02-6.5-6.163-6.5-1.833 0-3.663.536-4.068 1.191m40.381.371c-6.672 3.629-7.735 14.638-1.85 19.156 2.585 1.985 9.905 1.548 13.183-.786 1.597-1.138 2.904-2.488 2.904-3 0-1.463-2.624-1.09-4 .568-.685.825-2.739 1.5-4.566 1.5-3.621 0-6.434-2.837-6.434-6.488 0-3.486 3.515-8.872 6.272-9.609 2.9-.776 6.728 1.303 6.728 3.654 0 .794.675 1.443 1.5 1.443 1.075 0 1.5-1.097 1.5-3.871v-3.871l-6.25-.093c-3.807-.056-7.32.49-8.987 1.397m22.623 7.688c-3.186 5.088-6.376 9.61-7.089 10.05-2.555 1.575-1.221 2.7 3.203 2.7 3.216 0 4.5-.404 4.5-1.417 0-.779-.476-1.575-1.057-1.769-.582-.194-.75-1.154-.374-2.134.955-2.488 8.757-2.006 9.246.57.202 1.066-.283 1.75-1.242 1.75-.865 0-1.573.675-1.573 1.5 0 1.103 1.148 1.5 4.333 1.5 4.847 0 6.145-.719 4.619-2.558-.567-.683-1.472-4.1-2.011-7.592-1.777-11.521-1.9-11.85-4.431-11.85-1.856 0-3.512 1.885-8.124 9.25M156 114.5c0 .825.6 1.5 1.333 1.5 1.095 0 1.067 1.236-.157 6.937-1.364 6.351-1.348 7.152.19 9.5 1.434 2.188 2.415 2.563 6.705 2.563 6.655 0 9.077-2.559 10.846-11.46.898-4.518 1.904-6.909 3.197-7.601 3.194-1.71 2.101-2.939-2.614-2.939-3.216 0-4.5.404-4.5 1.417 0 .779.508 1.586 1.129 1.793 1.485.495-1.458 13.749-3.314 14.926-1.875 1.189-6.576 1.059-7.357-.203-1.252-2.026 1.652-13.921 3.661-14.996 3.378-1.808 1.987-2.937-3.619-2.937-4.222 0-5.5.348-5.5 1.5m26 0c0 .825.48 1.5 1.067 1.5s.859.787.604 1.75c-.256.963-1.014 4.524-1.686 7.914-.906 4.572-1.708 6.292-3.103 6.657-3.983 1.041-1.772 2.679 3.618 2.679 4.222 0 5.5-.348 5.5-1.5 0-.825-.45-1.5-1-1.5-1.112 0-1.329-2.98-.393-5.418 1.002-2.611 2.128-1.839 4.99 3.418 2.258 4.15 3.194 5 5.503 5 3.205 0 4.793-1.72 2.426-2.628-.88-.338-2.304-1.975-3.164-3.639-1.532-2.963-1.501-3.073 1.537-5.451 3.528-2.761 4.138-6.774 1.351-8.89-2.621-1.99-17.25-1.898-17.25.108m24.638 0c-.316.825-.139 1.5.393 1.5 2.452 0-.9 15.352-3.576 16.379-2.813 1.079-1.414 2.621 2.378 2.621 4.447 0 5.604-.768 4.025-2.672-.837-1.007-.798-2.957.15-7.592 1.949-9.527 2.992-9.156 2.992 1.064 0 11.72 1.267 11.934 6.545 1.107 4.416-9.056 5.705-10.577 4.837-5.707-1.351 7.583-2.519 10.8-3.921 10.8-.803 0-1.461.675-1.461 1.5 0 1.133 1.222 1.5 5 1.5 5.411 0 5.568-.117 3.855-2.861-1.521-2.436 1.665-16.139 3.753-16.139.765 0 1.392-.675 1.392-1.5 0-1.128-1.207-1.5-4.861-1.5h-4.86l-3.236 6.07c-1.779 3.339-3.39 5.916-3.579 5.728-.188-.189-.447-2.921-.575-6.071l-.231-5.727h-4.222c-2.83 0-4.412.494-4.798 1.5m29 0c-.361.942.011 1.5 1 1.5.939 0 1.359.565 1.039 1.399-.295.769-1.089 4.205-1.763 7.634-.902 4.583-1.716 6.364-3.071 6.718-1.013.265-1.843 1.105-1.843 1.866 0 1.085 2.149 1.383 9.98 1.383h9.979l2.041-4c2.382-4.669.898-5.439-2.855-1.483-1.8 1.898-3.374 2.483-6.68 2.483h-4.325l.93-3.243c.511-1.784.93-3.359.93-3.5s.9-.257 2-.257c1.111 0 2 .667 2 1.5 0 2.576 1.931 1.638 2.574-1.25a126 126 0 0 1 1.086-4.5c.305-1.124-.086-1.75-1.093-1.75-.862 0-1.567.675-1.567 1.5 0 .849-.896 1.5-2.066 1.5-1.665 0-2.005-.535-1.75-2.75.274-2.381.813-2.791 4.026-3.058 2.717-.226 4.162.22 5.397 1.662 2.534 2.96 4.451 1.759 3.063-1.918L253.562 113h-8.674c-6.788 0-8.799.326-9.25 1.5m-46.994 3.696c-1.044 3.901-.731 4.804 1.665 4.804 5.976 0 7.867-6.237 2.063-6.804-2.532-.247-3.225.125-3.728 2m-59.961 2.763c-2.204 3.732-2.142 4.041.817 4.041 2.1 0 2.5-.471 2.5-2.941 0-4.056-1.313-4.492-3.317-1.1m3.303 23.708c-.022 11.242-1.404 13.154-2.047 2.833l-.561-9-.157 10.5-.158 10.5 2.421-2.75c2.816-3.2 4.036-3.59 2.551-.816-1.31 2.449-1.318 3.359-.021 2.557 3.262-2.016 6.558-14.401 4.218-15.848-.423-.261-.636 1.175-.473 3.191.243 3-.181 4.006-2.332 5.539-2.626 1.87-2.628 1.87-1.477-.28 1.482-2.768.962-12.3-.7-12.848-.917-.302-1.254 1.407-1.264 6.422M9 145.91c0 1.408 7.217 10.179 11.682 14.198 13.129 11.815 34.04 22.032 56.818 27.76 8.918 2.242 24.79 5.124 28.25 5.129L108 193v-48H58.5c-29.078 0-49.5.376-49.5.91M153 169c0 23.376.052 24 2.011 24 4.186 0 21.859-3.206 30.984-5.62 25.383-6.717 46.914-18.476 59.966-32.751 3.502-3.83 5.935-7.428 6.004-8.879.019-.412-22.24-.75-49.465-.75H153zm-23.38-4.044c-2.772 5.284-2.826 5.665-1.708 12 .635 3.599 1.273 10.369 1.417 15.044s.356.539.467-9.191c.132-11.457.587-17.928 1.292-18.363.774-.479.99 4.96.75 18.846-.186 10.736-.007 18.999.397 18.363s.757-3.63.785-6.655c.049-5.277.109-5.399 1.48-3 1.727 3.021 1.917 2.173.376-1.685-.618-1.548-1.409-9.115-1.758-16.815l-.635-14zm-4.096-.599c-.288.904-.729 2.304-.98 3.111s-.063 1.711.418 2.009c.482.297 1.18-.846 1.552-2.54.715-3.257-.099-5.378-.99-2.58M130 205.472c0 1.996 1.684 2.794 2.332 1.105.298-.776-.105-1.66-.895-1.963-.83-.318-1.437.044-1.437.858"/><path fill="#1976D2" fill-opacity=".489" fill-rule="evenodd" d="M133 48c0 .55.45 1 1 1s1-.45 1-1-.45-1-1-1-1 .45-1 1m-.672 11.5c.005 3.85.185 5.302.402 3.228.216-2.075.213-5.225-.008-7s-.398-.078-.394 3.772m20.757 16.529c.134 15.545.559 23.263 1.307 23.75.609.396 22.793.721 49.297.721h48.19l-1.82-2.875c-2.878-4.547-12.004-13.46-18.654-18.218-8.595-6.15-23.447-13.394-35.905-17.512C186.711 58.989 158.661 53 153.844 53c-.588 0-.881 8.891-.759 23.029m-21.037 12.977c.073 10.033.5 16.773 1.042 16.439.504-.312.642-1.665.305-3.006-.447-1.781-.203-2.439.903-2.439 1.068 0 1.345-.648.94-2.196-.548-2.097-.609-2.108-1.336-.25-.419 1.07-.793-3.979-.832-11.221-.051-9.652.264-13.301 1.18-13.671.733-.295.51-.537-.538-.583-1.655-.073-1.779 1.186-1.664 16.927m-3.674-14.539c-.309.807-.37 2.044-.134 2.75s.666.046.956-1.467c.566-2.953.099-3.682-.822-1.283m-3.326 4.218c-.058 2.665 1.8 7.801 2.55 7.05.298-.298-.143-2.498-.98-4.889-.958-2.735-1.54-3.536-1.57-2.161M27 81.393c0 .216.698.661 1.552.989.89.341 1.291.173.941-.393-.587-.951-2.493-1.406-2.493-.596M15.977 91.732c-5.347 5.725-6.777 7.814-5.63 8.221.846.301 5.951.377 11.346.168 7.726-.298 9.144-.562 6.683-1.246-1.719-.477-3.744-1.63-4.5-2.563-1-1.232-1.025-1.485-.092-.924.955.574 1.161.092.803-1.882-.265-1.459-.109-3.633.346-4.83.549-1.443.387-2.588-.48-3.398-1.052-.982-2.715.285-8.476 6.454m119.683 15.712c-.389 1.013-.536 2.013-.327 2.223.663.662 3.667-.839 3.667-1.833 0-.524-.412-.698-.915-.387s-1.095.023-1.316-.64c-.242-.727-.683-.474-1.109.637M6.756 114.56C3.069 116.572-.313 123.299.5 127.002c1.032 4.695 4.835 7.999 9.202 7.994 3.85-.004 10.298-3.123 10.298-4.981 0-1.488-.879-1.255-3.727.985-6.743 5.304-12.468-1.404-9.2-10.778 1.422-4.081 6.203-5.927 9.593-3.705 1.284.841 2.334 2.194 2.334 3.006S19.675 121 20.5 121c1.548 0 1.879-1.986.924-5.542-.463-1.723-1.436-2.069-6.236-2.219-3.478-.108-6.754.405-8.432 1.321m19.882-.06c-.357.932.006 1.5.961 1.5.998 0 1.35.613 1.005 1.75-.292.963-1.014 4-1.604 6.75-1.627 7.577-2.014 8.5-3.567 8.5-.788 0-1.433.45-1.433 1 0 .593 3.672 1 9.016 1h9.016l1.663-3.487c2.124-4.453 1.236-5.353-2.043-2.074-1.785 1.785-3.636 2.561-6.107 2.561-1.95 0-3.545-.395-3.545-.877C30 127.559 33.441 116 34.502 116c.706 0 1.543-.675 1.86-1.5.463-1.207-.376-1.5-4.286-1.5-3.399 0-5.035.451-5.438 1.5M48 114.417c0 .779.468 1.572 1.04 1.763.69.23.518 2.6-.507 7.021-2.023 8.722-2.478 9.799-4.14 9.799-.766 0-1.393.45-1.393 1s2.25 1 5 1c4.526 0 6.725-1.258 3.865-2.212-.815-.271-.674-2.215.5-6.897.899-3.585 1.635-7.225 1.635-8.088s.9-1.805 2-2.093c3.9-1.02 2.029-2.71-3-2.71-3.647 0-5 .383-5 1.417m13.538-.478c-.319.516.084 1.31.896 1.764 1.298.727 1.291 1.664-.062 7.811-.906 4.115-2.326 7.668-3.455 8.646C56.165 134.544 56.5 135 61 135c3.976 0 4.856-.733 3.062-2.55-.975-.987.507-10.259 1.874-11.731.399-.429 2.264 2.593 4.145 6.716 3.55 7.784 6.402 9.846 7.353 5.315 3.653-17.409 3.336-16.456 5.566-16.773 4.798-.683 4.866-.505 2.952 7.727-.985 4.238-2.502 8.225-3.371 8.861C79.983 134.464 80.735 135 86 135c2.75 0 5-.45 5-1s-.45-1-1-1c-1.373 0-1.26-1.961.58-10.053 1.045-4.592 2.062-6.947 3-6.947.781 0 1.42-.675 1.42-1.5 0-1.228-1.722-1.5-9.5-1.5-7.529 0-9.5.294-9.5 1.417 0 .779.484 1.578 1.075 1.775.737.245.616 2.076-.388 5.833l-1.461 5.475-3.306-7.25c-3.116-6.834-3.492-7.25-6.554-7.25-1.786 0-3.509.422-3.828.939m40.029 1.001c-3.819 2.526-5.488 5.659-5.532 10.387-.048 5.282 4.273 9.673 9.52 9.673 3.892 0 10.846-3.541 9.915-5.049-.298-.482-1.989.004-3.756 1.082-4.217 2.571-5.887 2.476-8.677-.493-1.894-2.017-2.212-3.197-1.764-6.539.625-4.657 2.101-6.812 5.568-8.131 3.288-1.25 6.085-.194 7.192 2.716 1.377 3.623 2.967 2.907 2.967-1.336l-.001-3.75-6.249-.25c-4.81-.193-6.926.197-9.183 1.69m23.521 6.812c-2.977 4.811-6.318 9.76-7.424 10.998l-2.013 2.25h4.116c2.263 0 4.393-.45 4.733-1s.11-1-.511-1c-.62 0-.984-1.012-.809-2.25.273-1.92 1.017-2.295 5.07-2.555 4.246-.272 4.75-.083 4.75 1.782 0 1.147-.675 2.345-1.5 2.661-2.995 1.149-1.394 2.362 3.117 2.362 4.325 0 4.573-.142 3.925-2.25-1.087-3.541-2.361-9.824-3.041-15-.529-4.031-.955-4.75-2.812-4.748-1.672.001-3.467 2.068-7.601 8.75M157 114.417c0 .779.42 1.566.934 1.75.546.195.345 2.822-.485 6.333-1.835 7.767-1.816 8.133.551 10.5 1.346 1.346 3.333 2 6.077 2 5.958 0 9.123-3.583 10.819-12.25.811-4.144 1.817-6.75 2.606-6.75.706 0 1.543-.675 1.86-1.5.458-1.195-.332-1.5-3.893-1.5-3.306 0-4.469.39-4.469 1.5 0 .825.501 1.5 1.114 1.5 1.364 0 .334 7.966-1.643 12.714-2.328 5.588-9.471 5.391-9.471-.26 0-4.29 2.337-12.454 3.565-12.454.671 0 1.48-.675 1.797-1.5.464-1.209-.388-1.5-4.393-1.5-3.62 0-4.969.385-4.969 1.417m25 0c0 .779.515 1.588 1.145 1.798 1.61.537-1.831 15.727-3.727 16.455-.78.299-1.418.946-1.418 1.437 0 1.23 8.734 1.132 9.5-.107.34-.55.114-1-.501-1-1.519 0-.854-7.229.712-7.743.666-.219 2.466 1.877 4 4.658 2.296 4.162 3.275 5.059 5.539 5.071 2.782.014 3.653-1.31 1.669-2.536-.595-.368-1.913-2.036-2.929-3.707l-1.848-3.038 3.179-2.135c4.055-2.723 4.729-6.721 1.514-8.973-3.073-2.152-16.835-2.299-16.835-.18m25 0c0 .779.486 1.578 1.081 1.777 1.328.442-2.477 16.105-4.039 16.625-2.367.789-.798 2.181 2.458 2.181 3.511 0 4.298-.779 2.577-2.55-1.001-1.03 1.533-14.262 3.046-15.9.509-.551.883 2.6.892 7.5.009 4.647.41 9.073.893 9.835 1 1.579 1.447.91 6.856-10.255 1.831-3.779 3.588-6.611 3.904-6.295 1.253 1.253-1.929 13.811-3.795 14.976-1.03.644-1.873 1.512-1.873 1.93 0 1.138 8.785.915 9.5-.241.34-.55.08-1-.577-1-.846 0-1.009-1.355-.558-4.647 1.065-7.772 2.613-12.353 4.174-12.353.803 0 1.461-.675 1.461-1.5 0-1.125-1.199-1.5-4.792-1.5h-4.792l-2.958 5.958c-1.627 3.276-3.239 5.976-3.583 6-.78.053-1.875-5.252-1.875-9.083 0-2.687-.261-2.875-4-2.875-2.784 0-4 .431-4 1.417m29 .083c0 .825.439 1.5.975 1.5 1.091 0 .568 3.857-1.593 11.75-.905 3.305-1.983 5.25-2.91 5.25-.81 0-1.472.45-1.472 1 0 .6 3.993 1 9.98 1h9.979l2.041-4c2.318-4.543 1.28-5.189-2.409-1.5-1.936 1.936-3.529 2.5-7.065 2.5-4.472 0-4.551-.056-3.907-2.75.921-3.851 1.244-4.25 3.44-4.25 1.068 0 1.941.675 1.941 1.5 0 3.191 1.713 1.283 2.693-3 .96-4.198-.022-6.412-1.331-3-.317.825-1.653 1.5-2.969 1.5-2.732 0-2.728.01-1.418-3.435.821-2.159 1.604-2.565 4.944-2.565 2.881 0 4.365.568 5.42 2.073 1.766 2.522 2.98 1.048 2.083-2.527-.625-2.489-.837-2.546-9.53-2.546-7.237 0-8.892.279-8.892 1.5m-47.286 2.119c-.393.393-.714 1.989-.714 3.548 0 2.454.385 2.833 2.878 2.833 5.706 0 7.157-6.249 1.578-6.797-1.665-.164-3.349.024-3.742.416m-60.188 4.331c-2.002 3.872-1.959 4.05.974 4.05 2.19 0 2.5-.433 2.5-3.5 0-4.275-1.431-4.501-3.474-.55m3.553 22.3c.043 2.887.307 4.685.585 3.994.279-.691.918-1.002 1.421-.691 1.034.638 1.194-2.911.285-6.303-1.085-4.048-2.372-2.363-2.291 3m20.921 26c0 13.063.251 23.75.558 23.75s3.795-.468 7.75-1.039c27.269-3.941 50.481-12.061 68.129-23.834 7.594-5.066 18.771-15.696 20.966-19.939l1.39-2.688H153zM13.6 152.024c13.728 17.474 41.789 31.683 74.9 37.926 5.5 1.037 12.138 2.175 14.75 2.529l4.75.644v-47.192l-5.25.785c-2.888.431-9.75.688-15.25.57s-25.468-.487-44.373-.822l-34.372-.608zm118.964-1.317c-.542 1.425-.428 1.54.56.56.684-.679.991-1.486.683-1.793-.308-.308-.867.247-1.243 1.233m2.716 3.362c-.611 1.62-.702 2.692-.201 2.382 1.508-.932 2.984-4.294 2.12-4.828-.444-.275-1.308.826-1.919 2.446m-3.001 23.431c-.059 8.8.192 14.875.557 13.5s.413-8.575.107-16l-.557-13.5zm-3.641-10c-.316.825-.139 1.5.393 1.5.533 0 .969-.675.969-1.5s-.177-1.5-.393-1.5-.652.675-.969 1.5m-.607 5.5c0 1.375.436 3.175.969 4 .767 1.187.969.979.969-1 0-1.375-.436-3.175-.969-4-.767-1.187-.969-.979-.969 1"/></svg>