<svg xmlns="http://www.w3.org/2000/svg" width="256" height="256"><path fill="#1976D2" fill-opacity=".016" fill-rule="evenodd" d="M0 128.004v128.004l128.25-.254 128.25-.254.254-127.75L257.008 0H0zm.485.496c0 70.4.119 99.053.265 63.672s.146-92.98 0-128S.485 58.1.485 128.5"/><path fill="#1976D2" fill-opacity=".255" fill-rule="evenodd" d="M110 33.622C59.128 39.951 19.039 65.995 4.747 102c-4.903 12.35-6.098 27.446-3.247 40.999 7.74 36.795 45.207 67.31 94.772 77.186 15.252 3.039 46.13 3.266 61.228.45 48.882-9.119 87.802-39.19 96.005-74.178.897-3.826 2.05-7.738 2.563-8.693 1.071-1.995 1.292-21.457.232-20.397-.385.385-1.507-2.721-2.494-6.902-5.634-23.879-25.154-46.212-52.801-60.414-11.543-5.929-27.343-11.41-40.854-14.173-9.415-1.925-41.286-3.359-50.151-2.256m6.18 12.628L116 52h3.5c1.925 0 3.5-.45 3.5-1s-1.325-1-2.945-1c-2.795 0-2.965-.243-3.32-4.75-.37-4.698-.376-4.686-.555 1M129.158 43c0 1.375.227 1.938.504 1.25.278-.687.278-1.812 0-2.5-.277-.687-.504-.125-.504 1.25m3.288-.913c-.369.598-.194 1.565.39 2.149.749.749 1.014.429.9-1.087-.184-2.446-.35-2.583-1.29-1.062m5.804-.425c-2.353.95-1.312 4.07 1.788 5.354 1.67.692 2.873 1.759 2.671 2.371-.479 1.458-4.709 2.071-4.709.683 0-.589-.505-1.07-1.122-1.07-.776 0-.738.464.122 1.5 1.478 1.781 5.131 1.969 6.753.347 1.402-1.402-.138-4.847-2.166-4.847-.738 0-1.898-.67-2.577-1.488-1.006-1.212-.909-1.614.522-2.163 1.138-.436 2.235-.02 3.113 1.18 1.123 1.536 1.355 1.582 1.355.269 0-2.22-2.885-3.292-5.75-2.136m-32.325 3.028c-.589 1.545-1.293 4.16-1.564 5.81-.411 2.493-.305 2.704.622 1.25 1.283-2.011 5.052-2.315 6.817-.55 1.754 1.754 1.471.251-.786-4.172-2.641-5.177-3.803-5.711-5.089-2.338m42.77 2.929c-1.534 2.541-2.51 4.9-2.167 5.242s1.027-.101 1.522-.985c1.089-1.947 5.95-1.342 5.95.741 0 .76.48 1.383 1.067 1.383s.836-.788.554-1.75c-.283-.962-.813-3.437-1.179-5.5-.366-2.062-1.18-3.75-1.811-3.75-.63 0-2.401 2.079-3.936 4.619m-56.239-2.548C91.532 46.566 92.912 55 94.08 55c.527 0 .676-1.125.331-2.5-.796-3.17 1.092-3.315 4.271-.329 1.27 1.193 2.58 1.901 2.909 1.571.33-.329-.327-1.392-1.46-2.362-1.529-1.309-1.782-2.096-.983-3.058 1.751-2.11.186-4.322-3.058-4.322-1.634 0-3.27.482-3.634 1.071m14.576-.403c-.018.643-.305 1.88-.639 2.75-.435 1.134-.01 1.582 1.5 1.582 1.159 0 2.107-.364 2.107-.809 0-1.317-2.933-4.799-2.968-3.523m53.802-.138c-.307.533-.866 2.32-1.243 3.97s-.92 3.788-1.206 4.75-.119 1.75.371 1.75 1.345-1.687 1.899-3.75l1.007-3.75 1.185 3c2.906 7.36 2.829 7.271 3.917 4.5 1.682-4.285 2.536-9.304 1.472-8.646-.538.332-1.295 2.076-1.683 3.875l-.705 3.271-2.229-4.97c-1.226-2.734-2.479-4.534-2.785-4m-67.353 1.5c-.388.629-.251 1.6.305 2.156 1.298 1.298 5.448.02 4.941-1.521-.522-1.586-4.37-2.052-5.246-.635m57.123.56c-.68 1.773.018 3.41 1.455 3.41.518 0 .941-1.125.941-2.5 0-2.797-1.459-3.351-2.396-.91m-67.302.515-3.197.925 1.437 4.735c.79 2.604 1.441 4.847 1.447 4.985.029.655 2.81.018 5.511-1.261l3-1.421-3.75.577c-3.046.469-3.75.269-3.75-1.066 0-.904 1.013-2.089 2.25-2.634 2.106-.928 2.081-.958-.396-.475-4.133.806-4.57-2.149-.576-3.897 3.675-1.608 2.736-1.831-1.976-.468M76.564 53.5c1.738 4.159 1.209 4.327-3.153 1C69.649 51.63 69 51.465 69 53.378c0 2.267 3.252 9.219 3.708 7.927.232-.657-.094-2.158-.724-3.335-1.761-3.291-.48-3.45 3.478-.432 1.976 1.508 3.853 2.48 4.171 2.162.761-.761-2.665-9.7-3.718-9.7-.447 0-.155 1.575.649 3.5m103.306.5c-1.708 5.005-4.427 6.472-5.207 2.808-.454-2.138-.479-2.123-.327.192.117 1.776.822 2.593 2.435 2.822 1.801.256 2.588-.436 3.804-3.348.844-2.019 1.376-4.414 1.182-5.322-.199-.937-1.017.297-1.887 2.848m4.773 2.372c-2.047 4.825-2.044 4.956.186 6.973 2.905 2.629 4.973 1.963 7.151-2.305 2.268-4.445 2.401-5.04 1.128-5.04-.49 0-1.166 1.094-1.501 2.43-.81 3.225-3.31 5.621-5.136 4.921-1.726-.663-1.914-3.655-.406-6.472.586-1.095.875-2.527.643-3.184s-1.161.547-2.065 2.677m-123.896.202-2.753 1.493 2.126 4.217c1.169 2.319 2.253 4.361 2.409 4.538s2.012-.636 4.127-1.808 2.944-1.829 1.844-1.459c-4.555 1.53-5.251 1.535-5.826.038-.397-1.034.322-2.104 2.112-3.144 2.447-1.421 1.487-1.373-2.157.108-2.762 1.124-2.62-2.497.157-4.004 1.493-.81 2.264-1.473 1.714-1.473s-2.239.672-3.753 1.494m48.753 4.037C69.306 66.469 38.698 87.969 31.357 115.5c-1.576 5.909-1.719 17.218-.296 23.388 2.61 11.324 11.427 24.297 22.483 33.083 7.716 6.132 20.234 13.584 21.198 12.62.325-.325.124-.591-.447-.591s-4.359-2.181-8.417-4.846c-28.743-18.88-37.576-46.893-23.853-75.654 6.964-14.595 20.123-25.644 37.342-31.353 10.579-3.508 17.672-3.993 23.401-1.599 14.142 5.908 12.515 20.266-2.768 24.43-1.925.525-7.336 1.387-12.024 1.917-11.584 1.31-18.873 4.219-25.24 10.075l-5.236 4.816.033 10.857c.022 7.455.589 12.692 1.809 16.714.977 3.222 1.579 6.055 1.339 6.296-.795.795-6.015-9.032-7.713-14.52l-1.667-5.388-.65 3.252c-1.77 8.85.105 21.664 4.508 30.808 3.189 6.623 10.626 15.977 16.257 20.447 2.796 2.22 4.988 4.372 4.87 4.783-.117.412 2.358 1.698 5.5 2.858 49.201 18.171 110.566 3.772 134.141-31.475 11.935-17.844 12.306-38.917.995-56.417-11.341-17.548-30.469-29.75-57.422-36.632-8.583-2.192-12.622-2.599-28.5-2.874-10.175-.177-19.85-.124-21.5.116m86.276 2.176c-3.802 2.769-5.036 4.91-2.204 3.824 2.347-.901 5.419 1.155 5.491 3.674.061 2.113.1 2.123.853.215.434-1.1 1.086-3.912 1.448-6.25.793-5.111-.217-5.376-5.588-1.463m-145.553-.23C46.175 65.392 48.035 72 52.88 72c3.245 0 6.637-3.21 5.773-5.463-.697-1.815-3.228-2.033-4.258-.367q-.726 1.172.909.544c2.141-.822 3.197.978 1.66 2.83-1.703 2.052-4.335 1.808-6.517-.603-2.215-2.447-1.039-5.248 2.42-5.762 1.189-.177 1.904-.74 1.589-1.25-.801-1.296-1.671-1.167-4.233.628m146.887.81c-.857 1.033-.803 1.643.22 2.492 1.603 1.33 2.67.521 2.67-2.026 0-2.168-1.302-2.378-2.89-.466m8.005 5.309c-4.027 4.886-3.995 6.92.037 2.324l3.07-3.5-.49 4.766c-.269 2.621-.134 4.986.301 5.255.845.522 6.995-6.727 6.926-8.165-.022-.471-1.403.719-3.068 2.644l-3.029 3.5.268-4.717c.148-2.595.006-4.981-.316-5.302-.321-.321-1.985 1.117-3.699 3.195M35 74.804c0 .442 1.536 2.292 3.413 4.112 3.412 3.307 3.415 3.307 5.969 1.446 1.405-1.024 2.569-2.269 2.587-2.767.017-.498-.792-.16-1.798.75-2.555 2.312-3.626 2.091-6.518-1.345C36.116 73.984 35 73.314 35 74.804m182.698 4.993-3.732 3.822 2.531 2.379c2.108 1.98 2.987 2.218 5.25 1.422 1.582-.556 3.123-2.108 3.687-3.713.822-2.336.589-3.138-1.517-5.245l-2.487-2.487zm.943 1.056c-2.359 2.463-2.522 3.001-1.228 4.075 1.994 1.654 4.54 1.036 6.229-1.512 1.21-1.826 1.154-2.29-.45-3.743-1.722-1.558-1.996-1.487-4.551 1.18M29 82.04c0 1.789 3.993 8.96 4.989 8.96.521 0 .687-.681.368-1.513C33.579 87.459 35.752 85 38.322 85c2.954 0 .943-1.446-3.938-2.831C29.353 80.74 29 80.732 29 82.04m1.032.71c.017.412.71 1.648 1.539 2.745 1.293 1.711 1.642 1.782 2.45.5.662-1.051.445-1.866-.731-2.745-1.88-1.406-3.306-1.624-3.258-.5m-7.877 7.474c-1.122 1.773-1.78 3.46-1.461 3.75.319.289.781-.036 1.026-.724.634-1.773 2.04-1.557 5.39.828 1.606 1.144 3.472 1.895 4.147 1.67s-.674-1.498-2.997-2.829c-3.1-1.775-4.078-2.885-3.675-4.169.849-2.704-.18-2.079-2.43 1.474m202.908-.417c-3.359 2.803-3.361 2.809-1.577 5.531 2.048 3.126 3.319 2.924 1.358-.216-1.051-1.683-1.054-2.312-.015-3.347 1.037-1.034 1.643-.802 3.203 1.225 1.058 1.375 1.934 1.964 1.946 1.309S229.55 92.84 229 92.5c-1.529-.945-1.189-3.5.465-3.5.805 0 1.967.939 2.581 2.086s1.341 1.861 1.615 1.586c.771-.77-2.741-5.672-4.064-5.672-.645 0-2.685 1.263-4.534 2.807M119.348 91.42c-8.634 2.094-16.459 6.555-23.095 13.166-25.964 25.865-13.518 68.274 22.878 77.961 20.213 5.38 43.876-4.006 51.063-20.254 3.033-6.855 2.271-16.755-1.724-22.411-4.276-6.053-9.228-8.303-19.22-8.733l-8.25-.354V119h-4c-3.689 0-4.002.214-4.032 2.75-.03 2.634-.094 2.668-1.5.809-2.269-3-1.751-6.43 1.455-9.636 3.536-3.536 7.908-3.873 10.67-.821 1.733 1.916 6.517 4.898 7.857 4.898.945 0 .6-5.037-.483-7.062-1.303-2.434-8.066-5.938-11.459-5.938-3.484 0-8.678 2.272-10.508 4.595-1.411 1.791-1.381 1.823.5.53 1.1-.756.737-.193-.806 1.25S126.171 113 126.516 113s-.126.753-1.047 1.674c-2.2 2.2-1.386 7.342 1.964 12.405l2.514 3.798-3.223.312c-3.043.293-3.224.536-3.224 4.311v4l4.75.305 4.75.305V154h7.9l.3-5.75.3-5.75 1.75 3.2c4.899 8.96-.767 17.962-12.71 20.194-9.173 1.713-8.54 3.975-8.54-30.511 0-16.71-.347-30.383-.772-30.383s-2.442 1.377-4.484 3.059l-3.711 3.059-.267 26.191-.266 26.191-3.723-3.792c-2.047-2.086-4.283-5.686-4.967-8l-1.244-4.208-.357 3.388c-.532 5.058.453 7.732 4.498 12.21 9.923 10.983 26.635 11.912 37.511 2.086 2.151-1.944 4.557-4.783 5.347-6.309 2.029-3.924 1.78-10.279-.585-14.915l-2.021-3.96h5.119c4.385 0 5.517.425 7.889 2.964 6.268 6.711 4.532 17.029-4.111 24.428-18.34 15.697-50.002 8.306-61.115-14.266-2.97-6.034-3.24-7.379-3.231-16.105.009-8.21.378-10.309 2.68-15.239 7.604-16.285 26.308-26.057 43.743-22.854 8.236 1.514 13.632 3.873 18.368 8.031l3.699 3.248V98.325l-5.421-2.655c-11.176-5.472-23.877-7.004-35.231-4.25M18 97.852c0 .884 9.056 5.425 9.645 4.836.648-.647-1.854-2.359-5.895-4.033-2.062-.854-3.75-1.216-3.75-.803m170.781 1.2c-8.396 4.434-7.961 8.884 2.194 22.415 10.627 14.16 13.488 23.282 8.851 28.219-2.162 2.301-1.286 3.374.939 1.149.887-.887.907-.229.086 2.75-1.708 6.197-6.262 14.39-11.766 21.165-2.792 3.438-4.817 6.25-4.5 6.25 2.123 0 13.349-8.818 20.926-16.438 16.689-16.782 21.205-31.166 15.133-48.198-2.971-8.333-9.403-16.201-14.959-18.3-4.474-1.691-12.747-1.207-16.904.988M233 103.435c-3.598 1.32-4.006 2.808-1.865 6.815 1.572 2.942 7.881 1.758 9.219-1.731.796-2.072-.992-6.538-2.579-6.443-.701.042-2.85.654-4.775 1.359m-217.998 2.061c-1.509 3.967-1.369 4.191 3.676 5.91 5.498 1.873 5.322 1.851 5.322.667 0-.509-.788-1.079-1.75-1.266-1.267-.246-1.75-1.302-1.75-3.824 0-2.85-.409-3.541-2.248-3.802-1.662-.236-2.51.368-3.25 2.315m218.248-.465c-4.643 1.867-1.815 5.83 3.252 4.558 1.824-.458 2.498-1.296 2.498-3.108 0-2.674-1.662-3.093-5.75-1.45m-217.643 1.551c-.83 2.162-.85 2.121 1.328 2.691 1.976.516 3.579-1.633 2.509-3.363-.897-1.452-3.175-1.053-3.837.672m-2.957 9.508c-1.125 1.605-1.281 2.73-.567 4.065 1.43 2.673 3.234 2.271 5.268-1.173.981-1.659 2.203-2.758 2.716-2.441 1.553.96 1.047 4.293-.817 5.379-1.658.966-1.657 1.021.032 1.05 2.211.037 3.811-3.842 2.565-6.22-1.321-2.52-3.381-2.158-5.697 1-1.488 2.03-2.312 2.458-3.147 1.636-.84-.828-.698-1.548.552-2.798.926-.926 1.45-1.916 1.166-2.2s-1.217.481-2.071 1.702m223.51-.906c-2.387.533-4.095 1.214-3.796 1.513.822.822 9.505-.676 10.172-1.755.687-1.112-.523-1.066-6.376.242M.37 128c0 5.775.165 8.137.367 5.25s.202-7.612 0-10.5S.37 122.225.37 128m234.13-5.641c-2.534 3.869-.31 7.597 4.55 7.626 3.253.019 4.95-1.69 4.95-4.985 0-3.355-1.703-5-5.177-5-1.814 0-3.313.818-4.323 2.359m1.214.26c-1.489 1.489-.688 5.255 1.248 5.869 2.929.93 6.218-1.21 5.849-3.806-.23-1.612-1.104-2.26-3.347-2.479-1.67-.164-3.357.024-3.75.416m-223.143 4.952c-3.972 3.973.381 10.538 5.658 8.532 2.297-.873 3.771-2.9 3.771-5.185 0-1.642-3.949-4.918-5.929-4.918-1.06 0-2.635.707-3.5 1.571m.359 2.013c-1.772 2.136-.051 4.817 3.354 5.226 3.217.386 5.574-3.071 3.663-5.374-1.583-1.907-5.378-1.827-7.017.148m220.737 5.083c-1.395 1.394-.645 6.127 1.074 6.787 1.681.645 4.45-1.707 5.555-4.717.359-.977.727-.979 1.755-.011 1.063 1.002.966 1.597-.53 3.25-1.007 1.113-1.327 2.024-.711 2.024 1.54 0 3.466-3.839 2.798-5.578-.898-2.341-4.541-1.662-5.79 1.078-.626 1.375-1.742 2.5-2.479 2.5-1.951 0-1.64-3.725.411-4.92 1.482-.863 1.508-1.024.167-1.05-.871-.016-1.884.27-2.25.637M17.32 140.348c-4.62 1.273-7.451 3.324-3.174 2.3 1.902-.456 2.815-.191 3.25.941C18.503 146.474 18.02 148 16 148c-1.1 0-2 .486-2 1.079 0 1.1 4.202.532 8.75-1.182 3.208-1.208 2.785-2.173-.624-1.425-2.501.55-2.936.304-3.356-1.897-.561-2.931-.129-3.575 2.397-3.575 1.008 0 1.833-.45 1.833-1 0-1.173-.205-1.16-5.68.348M238 145.471c0 1.015 2.92 2.467 3.4 1.691.318-.514-.317-1.169-1.411-1.455s-1.989-.392-1.989-.236m-.372 4.737c.686 1.108 3.372.993 3.372-.146 0-.516-.869-.872-1.931-.792s-1.71.502-1.441.938M67 194c-3.781 3.781-2.041 9 3 9 3.478 0 5-1.724 5-5.665 0-2.204-.628-3.601-1.934-4.3-2.748-1.47-3.797-1.304-6.066.965m117.687-1.354c-1.083 1.084-.8 11.354.313 11.354.55 0 1-.659 1-1.465 0-2.249 3.801-3.945 5.564-2.482.79.656 1.436.778 1.436.272 0-1.462-7.553-8.439-8.313-7.679M67.086 196.25c-1.892 5.011 3.862 8.154 6.067 3.314 1.509-3.313.435-5.564-2.654-5.564-1.74 0-2.836.723-3.413 2.25M177 195.858c0 1.623 4.015 10.46 4.522 9.953.651-.651-2.497-9.677-3.616-10.369-.498-.308-.906-.121-.906.416m8 1.142q0 2 2 2c2.267 0 2.563-1.037.8-2.8s-2.8-1.467-2.8.8m-107.52 2.394c-1.778 4.256-2.003 8.472-.26 4.856 1.475-3.058 2.736-2.826 4.086.75.623 1.65 1.473 3 1.888 3 .416 0 .346-1.08-.156-2.4-.749-1.969-.565-2.491 1.025-2.906 3.703-.969 2-4.663-2.833-6.145-1.927-.591-2.494-.16-3.75 2.845M174.174 201l-.204 5.5-3.447-4c-1.896-2.2-3.458-3.55-3.471-3-.034 1.522 6.67 9.09 7.408 8.363.356-.35.483-3.275.282-6.5l-.364-5.863zM79 199.433c0 1.461 3.704 3.196 4.699 2.201.301-.301.282-1.242-.044-2.091-.746-1.945-4.655-2.038-4.655-.11m8.453 2.967c-1.061 5.653-.357 7.1 3.45 7.1 3.108 0 3.476-.337 4.631-4.25.69-2.338.87-4.25.399-4.25s-1.341 1.8-1.933 4c-.799 2.968-1.591 4-3.07 4-2.635 0-3.293-2.025-2.083-6.409.546-1.975.598-3.591.118-3.591-.481 0-1.161 1.53-1.512 3.4m76.682 1.35c1.448 5.576 1.858 6.59 2.434 6.015.752-.753-1.653-9.765-2.607-9.765-.44 0-.363 1.688.173 3.75m-65.579 1.008c-.364 2.058-.894 4.529-1.177 5.492-.282.963-.033 1.75.554 1.75S99 211.127 99 210.059c0-3.282 1.928-3.348 3.759-.13 1.927 3.385 3.972 4.305 2.196.988-.891-1.666-.761-2.474.648-4.031 1.526-1.686 1.571-2.129.33-3.293-.788-.74-2.621-1.622-4.073-1.96-2.421-.565-2.696-.304-3.304 3.125m56.969.702c.272 2.727.827 5.28 1.235 5.673.907.874 6.24-.076 6.24-1.111 0-.41-1.119-.531-2.488-.269-1.567.3-2.637-.029-2.894-.889-2.525-8.476-2.613-8.618-2.093-3.404m-10.302-1.903c-4.024 2.818-2.191 9.443 2.612 9.443 3.504 0 5.165-1.654 5.165-5.143 0-2.376-2.972-5.857-5-5.857-.305 0-1.555.701-2.777 1.557m-45.048 1.112c.424 2.201 4.325 2.5 4.325.331 0-.825-1.053-1.649-2.339-1.831-1.814-.257-2.26.08-1.986 1.5m9.396-.098c-3.346 3.347-.895 9.429 3.8 9.429 3.117 0 4.629-1.85 4.629-5.665 0-4.827-5.091-7.101-8.429-3.764m25.679-.865c-1.975.38-2.25 1.043-2.25 5.424v4.991l3.75-.311c3.641-.301 3.752-.426 3.828-4.31.074-3.766-1.044-6.669-2.45-6.364-.346.075-1.64.331-2.878.57m-24.2 1.734c-1.809 2.18-.914 6.974 1.384 7.41 1.953.371 4.566-2.187 4.566-4.47 0-1.383-2.702-4.38-3.949-4.38-.443 0-1.344.648-2.001 1.44m34.34-.013c-1.07 2.786.062 6.066 2.198 6.371 3.147.45 4.974-2.269 3.58-5.328-1.237-2.716-4.884-3.374-5.778-1.043M134 206.5c0 .933.944 1.5 2.5 1.5s2.5-.567 2.5-1.5-.944-1.5-2.5-1.5-2.5.567-2.5 1.5m.66 3.241c-.912 1.476.996 3.472 2.96 3.094 2.584-.498 2.375-3.264-.276-3.642-1.185-.169-2.393.077-2.684.548m-9.847.942c.721.289 1.584.253 1.916-.079s-.258-.568-1.312-.525c-1.165.048-1.402.285-.604.604"/><path fill="#1976D2" fill-opacity=".379" fill-rule="evenodd" d="M110.589 34.1C55.659 39.89 12.232 71.021 1.92 112c-1.781 7.078-1.781 24.922 0 32 9.093 36.134 43.476 64.592 90.58 74.971 34.815 7.671 73.402 3.403 105.259-11.642 22.321-10.542 43.196-30.408 51.37-48.889 2.731-6.174 5.871-17.205 5.871-20.628 0-1.482.45-2.972 1-3.312s1-3.768 1-7.618c0-4.412-.37-6.772-1-6.382-.583.361-1-.656-1-2.441 0-5.009-5.515-20.63-9.829-27.839-23.308-38.956-78.616-62.02-134.582-56.12m4.605 12.048.306 5.352 3.75.31c2.171.18 3.75-.136 3.75-.75 0-.583-1.099-1.06-2.443-1.06-2.15 0-2.479-.499-2.75-4.172-.17-2.311-.89-4.364-1.613-4.602-.989-.326-1.231.868-1 4.922M128.5 42c-.714 1.155.207 3 1.497 3 .483 0 .811-.9.728-2-.162-2.148-1.221-2.624-2.225-1m3.5 1c0 1.1.422 2 .938 2s.87-.9.787-2-.505-2-.938-2-.787.9-.787 2m5.667-1.333c-1.583 1.582-.445 4.396 2.366 5.85 1.668.862 2.766 1.999 2.441 2.526-.91 1.472-3.469 1.135-4.112-.543-.739-1.924-2.362-1.948-2.362-.035 0 2.378 3.851 3.924 6.626 2.659 3.233-1.473 2.982-3.871-.62-5.921-1.646-.936-2.996-2.04-3-2.453-.01-1.166 2.461-.883 3.777.433 1.669 1.669 2.771.189 1.237-1.659-1.286-1.55-5.141-2.07-6.353-.857m-32.678 4.583c-.598 2.337-1.271 4.798-1.495 5.468-.706 2.114 1.08 2.26 2.818.231 2.011-2.35 4.255-2.52 5.074-.386.33.86 1.061 1.279 1.625.93 1.284-.794-4.005-10.491-5.722-10.492-.667-.001-1.701 1.912-2.3 4.249m44.022.394c-1.656 2.611-3.011 5.109-3.011 5.552 0 1.138 1.761 1 2.5-.196.994-1.609 4.316-1.151 5.375.742.536.958 1.284 1.432 1.663 1.054.85-.851-1.405-10.596-2.627-11.351-.489-.302-2.244 1.587-3.9 4.199M95 43.79c-3.793.575-4.148 1.423-2.944 7.037C93.27 56.486 95 57.763 95 53c0-3.572.615-3.71 3.682-.829 2.678 2.516 4.425 1.709 2.029-.938-1.027-1.135-1.3-2.281-.753-3.165 1.817-2.94-.514-4.952-4.958-4.278m64.083 5.259c-1.314 6.125-1.31 5.951-.112 5.951.535 0 1.377-1.462 1.873-3.25.925-3.338.987-3.288 3.102 2.5 1.794 4.911 3.185 3.554 4.612-4.5.83-4.683-1.091-5.135-2.122-.5l-.723 3.25-1.816-4.25c-.998-2.337-2.246-4.25-2.773-4.25s-1.446 2.272-2.041 5.049M94.377 46.46c-.343.894-.408 1.842-.144 2.107.847.847 3.865-.774 3.497-1.878-.601-1.802-2.695-1.945-3.353-.229m12.623.481c0 1.132.45 2.059 1 2.059s1-.648 1-1.441-.45-1.719-1-2.059-1 .309-1 1.441m-24.775.099c-1.874.753-2.156 1.403-1.603 3.687 1.669 6.897 2.209 7.557 5.618 6.875 4.803-.961 6.229-3.017 1.51-2.178-2.987.531-3.75.356-3.75-.86 0-.839 1.125-1.808 2.5-2.153 3.56-.894 3.109-2.483-.5-1.761-3.722.744-4.104-1.28-.5-2.65 1.375-.523 2.5-1.187 2.5-1.475 0-.798-3.22-.511-5.775.515m68.413.46c-.35.914-.001 1.5.893 1.5.808 0 1.469-.675 1.469-1.5s-.402-1.5-.893-1.5-1.152.675-1.469 1.5M75 50.066c0 .586.486 1.974 1.081 3.085 1.582 2.956.409 3.38-2.663.963C71.94 52.951 70.086 52 69.298 52c-1.532 0-1.289 1.385 1.351 7.703 1.651 3.952 3.796 3.597 2.285-.377-1.312-3.451-.764-3.767 2.321-1.34 4.88 3.839 5.825 2.41 3.109-4.703C76.854 49.328 75 47.555 75 50.066m104.998 2.439c-.549 1.444-.998 2.991-.998 3.438s-.698 1.391-1.551 2.099c-1.309 1.087-1.638.952-2.113-.866-.598-2.284-2.336-2.025-2.336.348 0 1.805 3.405 3.642 5.361 2.891 1.862-.715 4.885-9.145 3.57-9.957-.514-.318-1.384.603-1.933 2.047m4.57 2.986c-.862 2.064-1.568 4.608-1.568 5.653 0 2.148 4.094 4.418 6.384 3.539 1.967-.755 4.84-6.339 4.373-8.5-.249-1.15-1.067-.336-2.581 2.567-2.216 4.248-4.76 5.498-5.78 2.84-.297-.775.205-2.852 1.117-4.615 1.123-2.172 1.329-3.533.641-4.221-.689-.689-1.523.193-2.586 2.737m-123.318.311c-1.788.858-3.25 1.947-3.25 2.419C58 59.95 62.071 67 63.07 67c1.895 0 7.446-3.317 6.235-3.726-.657-.222-2.092.077-3.189.664-2.931 1.569-4.083-.884-1.287-2.741 2.695-1.789 2.892-3.653.237-2.232-1.064.569-2.414 1.035-3 1.035-1.993 0-1.076-1.931 1.577-3.321 3.741-1.96 1.54-2.767-2.393-.877m50.25 4.363c-50.694 5.722-87.452 39.546-81.477 74.974 5.843 34.638 47.835 60.853 97.477 60.853 46.029 0 85.373-22.103 96.11-53.992 2.87-8.523 2.469-22.555-.894-31.225-13.448-34.679-60.93-56.286-111.216-50.61m84.2 2.441c-2.567 2-4.41 4.054-4.095 4.564.338.547 1.119.474 1.906-.179 1.513-1.256 5.645.711 5.236 2.493-.128.559.214 1.214.76 1.457 1.303.578 2.974-9.86 1.771-11.063-.546-.546-2.777.546-5.578 2.728m-146.639.333c-2.671 2.671-2.599 4.324.335 7.735 2.083 2.422 2.753 2.658 5.135 1.806 3.978-1.423 5.738-4.45 3.972-6.832-1.224-1.651-1.597-1.696-3.432-.411-2.252 1.578-1.796 2.978.663 2.035 2.005-.77 1.236 1.714-.96 3.099-2.304 1.453-4.953-1.028-4.575-4.285.223-1.912.885-2.593 2.543-2.614 2.935-.038 3.395-1.881.569-2.283-1.219-.174-3.101.601-4.25 1.75m149.122.278c-1.4 1.4-1.545 2.783-.29 2.783.916 0 2.425-3.016 1.814-3.626-.187-.188-.873.192-1.524.843m6.567 5.23c-4.181 5.24-3.626 7.846.62 2.909l2.274-2.643-.072 4.393c-.04 2.417.311 4.619.778 4.894 1.048.617 7.24-7.744 6.375-8.608-.342-.343-1.76.667-3.151 2.243l-2.529 2.865.613-4.75c.762-5.894-.894-6.334-4.908-1.303M82.5 71.307C69.348 75.7 61.999 80.002 53.983 88c-14.525 14.493-21.15 36.421-16.452 54.458 3.246 12.462 12.656 25.327 24.827 33.943 11.478 8.125 12.852 8.058 4.65-.228-7.809-7.888-13.701-17.459-15.949-25.906-1.369-5.143-1.534-19.823-.262-23.255.846-2.279 1.068-1.986 2.66 3.5.955 3.294 2.863 7.788 4.24 9.988 1.376 2.2 2.217 3.136 1.869 2.08-1.907-5.78-2.757-12.078-2.758-20.447l-.002-9.367 4.699-4.771C68.733 100.656 80.377 96 91.502 96c5.684 0 13.743-3.045 17.195-6.497 4.242-4.242 4.481-8.95.684-13.462-5.762-6.848-15.446-8.554-26.881-4.734M35 74.833c0 .459 1.479 2.545 3.287 4.636l3.286 3.802 2.964-2.55c1.63-1.403 2.628-2.886 2.219-3.296-.409-.411-1.63.056-2.712 1.036-1.906 1.724-2.054 1.681-4.596-1.34S35 73.119 35 74.833m182.75 4.298c-2.062 1.684-3.75 3.384-3.75 3.777 0 1.687 4.269 5.092 6.384 5.092 2.638 0 5.616-2.845 5.616-5.364 0-1.838-2.821-6.658-3.865-6.602-.349.018-2.322 1.412-4.385 3.097m1.256 2.363c-1.805 1.921-2.099 2.813-1.22 3.692 1.882 1.882 6.431-.658 6.032-3.367-.458-3.115-2.088-3.225-4.812-.325m-190.441-.6C27.787 82.154 32.637 92 34.036 92c.551 0 .74-1.046.419-2.324-.675-2.687 1.689-5.218 4.032-4.319.876.336 1.513.029 1.513-.73 0-.721-1.847-1.864-4.104-2.54s-4.687-1.453-5.399-1.727c-.712-.273-1.581-.033-1.932.534M87 83c-1.177.761-.962.947 1 .866 1.375-.056 3.85-.446 5.5-.866 2.89-.735 2.853-.767-1-.866-2.2-.057-4.675.333-5.5.866m-56 .941c0 1.393 1.838 2.277 3.107 1.493.771-.477.696-.944-.25-1.544-1.785-1.131-2.857-1.112-2.857.051m-8.822 5.666c-2.366 3.652-2.305 5.574.112 3.567 1.015-.842 2.215-.515 4.967 1.355 2.047 1.39 3.888 2.045 4.224 1.502.327-.529-1.007-1.991-2.965-3.247-2.807-1.801-3.445-2.76-3.019-4.534.798-3.32-.679-2.716-3.319 1.357m203.09-.52-4.231 2.997 2.231 3.446c1.228 1.895 2.57 3.451 2.982 3.458 1.114.018.923-.794-.804-3.431-2.113-3.223.158-4.764 2.592-1.759 2.219 2.741 3.317 1.673 1.356-1.32-1.991-3.038.16-4.559 2.243-1.586 2.504 3.575 3.522 2.324 1.122-1.38-1.242-1.918-2.484-3.473-2.759-3.455s-2.404 1.381-4.732 3.03M122 91.062c-14.219 2.438-27.931 12.948-34.664 26.573-3.782 7.651-3.836 7.926-3.836 19.365s.054 11.714 3.836 19.365c13.032 26.368 46.709 35.478 71.175 19.255 13.73-9.105 17.58-26.613 8.2-37.296-4.336-4.938-8.209-6.324-17.679-6.324H141v-13h-4c-3.84 0-4.001.13-4.032 3.25-.03 3.074-.111 3.145-1.5 1.309-1.707-2.257-1.916-6.853-.438-9.614 1.114-2.082 5.954-4.945 8.359-4.945.818 0 2.966 1.35 4.772 3s3.598 3 3.98 3 1.367.258 2.188.573c1.242.476 1.355-.042.67-3.079-.954-4.227-.597-3.781-4.699-5.867-3.626-1.843-6.886-2.106-7.8-.627-.34.55-1.536 1-2.659 1s-3.571 1.53-5.441 3.4c-2.777 2.777-3.4 4.162-3.4 7.559 0 2.518-.395 3.915-1 3.541-.55-.34-1-.344-1-.009 0 1.275 2.936 6.211 4.434 7.454 2.478 2.057 1.846 3.055-1.934 3.055-3.333 0-3.5.167-3.5 3.5 0 3.481.024 3.5 4.5 3.5h4.5v15h7.905l.297-6.218.298-6.218 1.918 2.94c1.055 1.616 2.116 4.997 2.358 7.513.375 3.911.031 5.059-2.377 7.921-3.776 4.487-9.659 7.013-16.399 7.041l-5.5.022.291-31c.16-17.051.023-31.001-.303-31.001-.327 0-2.146 1.237-4.041 2.75L114 110.5v26.75c0 14.713-.359 26.75-.797 26.75-1.309 0-8.013-7.306-9.176-10-.972-2.253-1.033-2.128-.613 1.266 1.264 10.224 15.993 18.438 28.182 15.716 10.088-2.252 17.749-9.17 19.052-17.203.512-3.152-.504-6.368-4.43-14.029-.638-1.243 8.099-.813 10.752.529 1.358.688 3.539 2.819 4.846 4.736 1.981 2.906 2.29 4.339 1.863 8.631-2.091 20.99-34.856 29.584-56.35 14.781-21.815-15.025-21.815-47.829 0-62.854 14.45-9.951 34.034-9.945 47.921.016l4.75 3.408v-4.917c0-4.513-.279-5.09-3.399-7.018-8.674-5.361-23.418-7.918-34.601-6M18 97.98c0 1.019 7.141 5.02 8.96 5.02 2.355 0 .762-1.737-3.487-3.801C18.332 96.701 18 96.627 18 97.98m173.122.394c-4.106 1.486-8.122 5.928-8.122 8.986 0 2.412 3.036 7.289 10.981 17.64 6.436 8.385 8.326 13.982 7.768 23.012-.524 8.478-5.238 18.743-12.28 26.738-2.543 2.887-4.34 5.25-3.992 5.25 2.019 0 14.128-9.438 20.722-16.152 5.845-5.951 8.735-9.929 12-16.518 4.081-8.236 4.299-9.117 4.253-17.255-.062-11.145-2.836-18.486-9.744-25.79-6.65-7.032-13.388-8.877-21.586-5.911m42.534 4.307c-4.544 1.345-4.802 1.601-4.17 4.121.968 3.857 2.383 5.198 5.481 5.198 3.904 0 6.39-3.1 5.55-6.921-.369-1.681-.974-3.231-1.344-3.444s-2.853.257-5.517 1.046m-218.371 1.521c-.572.714-1.336 2.263-1.696 3.442-.569 1.86-.03 2.358 4.055 3.75 2.592.884 5.082 1.606 5.534 1.606 1.546 0 .825-1.864-.938-2.424-1.209-.384-1.757-1.579-1.75-3.817.008-2.547-.446-3.324-2.078-3.557-1.148-.164-2.555.286-3.127 1m218.415.981c-2.992 1.087-3.124 2.516-.39 4.24 2.146 1.355 5.19-.375 5.19-2.949 0-2.259-1.225-2.589-4.8-1.291m-217.033.484c-1.218 1.218-.689 3.333.833 3.333.833 0 1.5-.889 1.5-2 0-1.992-1.066-2.601-2.333-1.333m177.903 2.219c-.301.488 1.99 3.976 5.092 7.75s6.891 9.501 8.421 12.724l2.781 5.859 1.084-4.028c.921-3.419.757-4.908-1.085-9.859-2.754-7.401-8.398-13.332-12.686-13.332-1.683 0-3.306.399-3.607.886M148 110.882c0 .55.45 1.278 1 1.618s1 .168 1-.382-.45-1.278-1-1.618-1-.168-1 .382m-136.153 5.554c-2.368 5.198 2.43 7.842 5.561 3.064.901-1.375 2.078-2.5 2.615-2.5 1.629 0 1.094 3.191-.773 4.608-1.553 1.179-1.567 1.332-.122 1.36 2.482.049 4.176-2.619 3.465-5.455-.863-3.438-4.847-3.446-6.411-.013-.627 1.375-1.599 2.5-2.161 2.5-1.314 0-1.331-2.691-.021-3.5 1.304-.806 1.29-2.5-.021-2.5-.562 0-1.521 1.096-2.132 2.436m223.735-1.568c-1.604.348-3.104 1.195-3.333 1.882-.504 1.515-.572 1.513 5.702.167 2.777-.595 5.049-1.495 5.049-2 0-1.007-2.902-1.026-7.418-.049m-1.547 7.066c-1.687 3.153-1.192 5.917 1.359 7.589 4.153 2.72 9.606-.053 9.606-4.886 0-4.369-8.899-6.563-10.965-2.703M.336 128c0 4.125.177 5.813.392 3.75s.216-5.437 0-7.5c-.215-2.062-.392-.375-.392 3.75m235.816-5.115c-.742.47-1.188 1.701-.992 2.735.472 2.488 6.569 3.25 7.459.931 1.242-3.236-3.186-5.746-6.467-3.666m-224.155 4.618c-1.829 2.204-1.52 6.641.569 8.169 5.631 4.118 12.748-3.215 7.863-8.101-1.995-1.994-6.801-2.033-8.432-.068m1.753 1.577c-3.961 2.307.179 7.099 4.25 4.92 2.388-1.278 2.641-4.54.418-5.393-2.069-.794-2.581-.742-4.668.473m220.677 4.685c-1.806 1.237-2.475 4.277-1.388 6.307 1.472 2.751 3.072 2.412 6.184-1.313 2.533-3.031 2.725-3.102 2.75-1.009.015 1.238-.423 2.25-.973 2.25s-1 .45-1 1 .666 1 1.481 1c2.314 0 3.092-4.859 1.093-6.835-1.574-1.556-1.874-1.435-4.562 1.835-2.587 3.147-2.951 3.309-3.607 1.605-.486-1.261-.174-2.301.933-3.11 2.625-1.919 1.761-3.56-.911-1.73M15.75 140.203c-4.203 1.116-5.019 2.797-1.357 2.797 2.377 0 4.128 2.348 3.051 4.09-.309.501-1.21.91-2.003.91S14 148.45 14 149c0 1.278 1.09 1.258 6.557-.119 4.858-1.223 6.108-3.219 1.693-2.703-2.232.261-2.812-.115-3.079-2.001-.237-1.67.255-2.476 1.75-2.867 1.143-.299 2.079-.941 2.079-1.427 0-1.088-2.337-.985-7.25.32m222.526 6.126c.479 1.438 3.724 2.189 3.724.861 0-.526-.926-1.199-2.057-1.495-1.309-.342-1.915-.111-1.667.634m-1 3c.479 1.438 3.724 2.189 3.724.861 0-.526-.926-1.199-2.057-1.495-1.309-.342-1.915-.111-1.667.634M66.58 193.912c-2.534 2.8-1.697 7.189 1.728 9.056 2.694 1.469 2.909 1.417 5.25-1.274 2.911-3.344 3.097-5.791.613-8.039-2.427-2.197-5.464-2.094-7.591.257M184 198c0 5.933 1.244 8 2.325 3.863.467-1.783 1.064-2.035 3.617-1.525 1.682.337 3.058.265 3.058-.16 0-.958-7.321-8.178-8.292-8.178-.389 0-.708 2.7-.708 6m-115.8-2.8c-1.536 1.536-1.536 4.064 0 5.6 1.743 1.743 2.557 1.501 4.395-1.305 1.323-2.019 1.401-2.795.401-4-1.499-1.806-3.181-1.91-4.796-.295m108.8 1.017c0 2.127 3.237 9.783 4.136 9.783 1.206 0 1.094-.968-.73-6.322-1.476-4.332-3.406-6.293-3.406-3.461m9.015.533c-.008 1.238.435 2.25.985 2.25 1.253 0 1.253-1.061 0-3-.784-1.213-.972-1.069-.985.75m-109.403 3.875c-1.79 5.253-1.035 8.031 1.083 3.988 1.668-3.183 2.828-2.749 3.651 1.366.332 1.662 1.122 3.021 1.754 3.021.736 0 .941-1.046.568-2.91-.407-2.033-.143-3.077.875-3.468 2.437-.935 1.723-4.57-1.108-5.647-4.295-1.633-5.185-1.157-6.823 3.65m97.374-2.575c-.007 1.348-.29 3.482-.628 4.744-.591 2.207-.705 2.159-3.04-1.276-1.334-1.963-2.857-3.303-3.385-2.976-1.174.725 4.927 9.458 6.608 9.458 1.6 0 2.925-9.934 1.513-11.346-.739-.739-1.058-.321-1.068 1.396m-94.319.617c-1.179 1.178-.717 2.087 1.332 2.622 2.409.63 3.817-1.158 1.879-2.385-1.673-1.06-2.34-1.109-3.211-.237m7.291 3.984c-1.238 4.421-1.19 4.743.98 6.5 1.256 1.017 2.898 1.849 3.65 1.849 1.755 0 4.028-3.6 4.893-7.75.986-4.728-1.173-4.109-2.47.708-1.219 4.53-2.508 5.705-4.47 4.076-1.021-.847-1.138-1.954-.456-4.33 1.147-3.999 1.16-5.704.045-5.704-.479 0-1.456 2.093-2.172 4.651m76.482-1.034a141 141 0 0 1 1.233 5.5c.627 3.135 2.33 3.966 2.321 1.133-.003-.963-.474-3.437-1.047-5.5-1.176-4.236-3.556-5.312-2.507-1.133m-64.8 1.073c-1.396 4.739-1.798 9.31-.819 9.31.574 0 1.33-.9 1.679-2 .865-2.726 2.354-2.513 3.5.5.523 1.375 1.412 2.5 1.975 2.5 1.28 0 1.289-.638.043-2.966-.729-1.362-.6-1.98.5-2.403 1.53-.587 2.06-4.173.732-4.954-.412-.243-2.174-.747-3.913-1.12-2.546-.545-3.268-.324-3.697 1.133m55.36-1.323c0 .294.487 2.807 1.083 5.584 1.124 5.24 1.838 5.713 6.667 4.419 3.365-.902 2.741-2.637-.679-1.886-2.794.614-2.966.45-3.766-3.592-.46-2.33-1.393-4.421-2.071-4.647-.679-.227-1.234-.171-1.234.122m-9.429 2.204c-3.327 3.328-.769 10.429 3.758 10.429 2.979 0 5.919-3.864 5.203-6.837-1.157-4.805-5.862-6.691-8.961-3.592m-43.904.096c-1.36 1.359-.595 2.333 1.833 2.333 2.793 0 3.353-1.459.918-2.393-1.958-.752-1.94-.752-2.751.06m8.533.533c-1.661 1.661-1.506 7.301.24 8.75 2.353 1.953 6.828.852 8.469-2.085 1.318-2.36 1.293-2.907-.242-5.25-1.858-2.835-6.304-3.578-8.467-1.415m23.217.156c-.312.813-.175 3.428.305 5.811.846 4.2.979 4.323 4.325 4.002 4.242-.408 5.467-1.479 4.404-3.852-.447-.999-.845-2.942-.882-4.317-.059-2.153-.59-2.543-3.827-2.811-2.61-.216-3.931.141-4.325 1.167m13.292.268c-2.428 2.429.735 8.187 3.842 6.995 2.444-.938 1.545-7.034-1.092-7.411-1.123-.161-2.36.027-2.75.416m-35 1c-1.241 1.241-.763 5.086.791 6.376 2.138 1.774 4.692-.55 4.301-3.914-.296-2.541-3.476-4.078-5.092-2.462m24.291.949c0 .932.68 1.442 1.667 1.25 2.509-.486 2.853-2.823.416-2.823-1.228 0-2.083.646-2.083 1.573m.667 3.094c-1.174 1.174-.714 3.333.711 3.333.757 0 1.894-.622 2.525-1.383.889-1.071.785-1.523-.459-2-1.987-.763-1.965-.763-2.777.05M123.5 211c.34.55 1.24 1 2 1s1.66-.45 2-1c.352-.569-.509-1-2-1s-2.352.431-2 1"/><path fill="#1976D2" fill-opacity=".44" fill-rule="evenodd" d="M116.017 34.217C55.133 38.019 5.594 75.127 1.161 120.25c-4.065 41.383 26.819 79.119 77.452 94.637 19.204 5.885 24.768 6.617 49.887 6.566 24.912-.052 32.997-1.179 51-7.109 42.323-13.941 72.582-45.374 75.209-78.126.322-4.005.968-7.519 1.438-7.809.469-.29.853-.977.853-1.527s-.386-.761-.858-.47-1.119-2.719-1.437-6.691c-1.819-22.658-18.059-46.567-42.413-62.442-26.466-17.252-60.142-25.318-96.275-23.062m-.378 6.477c-.351.352-.639 3.039-.639 5.973V52h4.5c2.475 0 4.5-.45 4.5-1s-1.35-1-3-1c-2.883 0-3-.173-3-4.441 0-4.233-.978-6.248-2.361-4.865m12.968.888c-.334.87-.607 1.989-.607 2.488 0 1.08 5.836.765 5.933-.32.341-3.82.1-4.09-1.976-2.211-1.791 1.62-1.963 1.64-1.393.155.357-.932.2-1.694-.35-1.694s-1.273.712-1.607 1.582m-22.299.656C105.295 43.573 103 50.947 103 52.866c0 .624.675 1.134 1.5 1.134s1.5-.675 1.5-1.5c0-1.806 4.071-2.029 5.783-.317 2.439 2.439 2.543-.426.174-4.795-3.043-5.613-4.376-6.828-5.649-5.15m30.676.281c-1.031 1.243-.934 1.878.533 3.5.986 1.089 2.398 1.981 3.138 1.981 1.431 0 1.786 1.226.676 2.336-.368.367-1.495-.08-2.506-.994-2.185-1.978-3.705-.966-2.188 1.456 1.334 2.128 5.007 2.742 6.918 1.156 2.427-2.013 1.667-4.788-1.805-6.59-1.856-.963-2.699-1.872-1.966-2.12.706-.238 1.954.124 2.774.804 1.778 1.476 2.925.653 2.097-1.505-.768-2.002-6.015-2.019-7.671-.024m11.611 3.909c-3.65 6.228-3.511 7.756.484 5.322 1.773-1.08 2.31-.934 3.958 1.076 2.05 2.501 4.353 2.074 3.563-.66-.264-.916-.975-3.579-1.579-5.916-.618-2.391-1.696-4.25-2.465-4.25-.751 0-2.534 1.993-3.961 4.428m-55.463-2.707c-2.234.424-2.329.737-1.69 5.557.373 2.809.903 5.47 1.177 5.915C93.653 56.865 95 55.907 95 53.5c0-3.02 1.08-3.175 3.5-.5.995 1.1 2.19 2 2.655 2 1.373 0 .965-2.656-.61-3.963-1.138-.944-1.206-1.608-.31-3.041.878-1.406.839-2.202-.168-3.415-1.306-1.574-2.43-1.714-6.935-.86m65.921 4.029c-1.328 4.782-1.34 8.25-.028 8.25.564 0 1.308-1.415 1.654-3.145l.629-3.145 1.903 3.71c1.046 2.04 2.418 3.537 3.048 3.327 1.361-.454 3.89-9.697 3.032-11.085-.802-1.298-3.271 2.203-3.37 4.779-.047 1.236-.68.36-1.583-2.191-1.859-5.25-3.912-5.444-5.285-.5M83.25 46.247c-1.989.638-3.25 1.704-3.25 2.748 0 1.948 1.954 8.143 2.912 9.23C83.937 59.389 91 56.803 91 55.265c0-.987-.663-1.199-2.25-.717-3.479 1.055-3.969 1.036-4.419-.179-.23-.622.726-1.418 2.125-1.769 3.681-.923 3.249-2.914-.456-2.1-3.677.808-4.151-1.173-.5-2.089 1.375-.345 2.5-1.254 2.5-2.019 0-1.578-.259-1.586-4.75-.145M94 47c0 .55.9 1 2 1s2-.45 2-1-.9-1-2-1-2 .45-2 1m13 .559c0 .857.457 1.276 1.016.931.559-.346.758-1.047.441-1.559-.857-1.387-1.457-1.129-1.457.628M151 48c0 .55.477 1 1.059 1s.781-.45.441-1-.816-1-1.059-1-.441.45-.441 1m-76 2.482c0 .907.484 2.554 1.076 3.659.954 1.783.869 1.888-.75.926-1.004-.596-2.833-1.806-4.064-2.689-3.283-2.356-3.838.113-1.337 5.947 2.72 6.345 5.488 6.521 3.083.195l-.993-2.61 3.539 2.699c4.83 3.684 6.123 2.2 3.626-4.158-1.921-4.89-4.18-7.035-4.18-3.969M179.118 54c-1.173 3.914-3.118 5.474-3.118 2.5 0-.825-.675-1.5-1.5-1.5-1.917 0-1.95 3.381-.048 4.96 3.206 2.661 6.322-.118 8.082-7.21 1.131-4.556-2.022-3.402-3.416 1.25m4.753 2.559c-1.631 3.686-1.779 4.847-.776 6.055 1.919 2.313 4.59 3.444 6.449 2.731 1.822-.7 5.637-8.244 4.829-9.551-.999-1.616-2.115-.692-3.873 3.206-2.865 6.355-6.675 5.056-3.993-1.362 1.765-4.224 1.874-5.638.437-5.638-.581 0-1.964 2.052-3.073 4.559M60.75 55.572c-1.513.821-2.75 1.945-2.75 2.5 0 .837 3.666 8.757 4.499 9.721.695.803 7.501-3.357 7.501-4.585 0-.962-.566-1.189-1.75-.702-3.525 1.452-5.25 1.705-5.25.771 0-.526 1.193-1.5 2.652-2.164 1.844-.84 2.334-1.527 1.607-2.254-.726-.726-1.667-.711-3.086.048-2.451 1.312-3.173 1.37-3.173.254 0-.462 1.125-1.353 2.5-1.979 2.608-1.188 3.413-3.211 1.25-3.142-.687.022-2.487.711-4 1.532m45.75 4.817c-38.82 6.423-68.979 28.319-75.969 55.153-8.589 32.975 20.194 66.785 65.935 77.45 43.837 10.222 92.965-2.791 116.047-30.737 9.08-10.993 13.454-22.298 13.475-34.823.051-30.137-28.502-56.648-70.988-65.914-10.213-2.228-37.957-2.873-48.5-1.129m88.791 1.919c-5.101 3.868-5.426 5.538-1.041 5.339 2.663-.12 3.308.259 3.57 2.103.511 3.605 2.859 2.61 3.538-1.5.98-5.926.759-9.255-.608-9.192-.687.031-3.144 1.494-5.459 3.25m-146.636.521C46.43 65.288 46.568 68.568 49 71c2.681 2.681 6.16 2.523 8.911-.406 1.87-1.99 2.067-2.767 1.139-4.5-1.287-2.406-1.498-2.46-4.116-1.059-2.553 1.367-2.502 3.28.066 2.465 2.566-.814 2.62 1.098.069 2.463C52.764 71.197 50 68.997 50 65.929c0-1.914.881-2.324 4.25-1.981.996.101 1.75-.496 1.75-1.385 0-2.22-5.268-2.029-7.345.266m148.888 1.102c-.317.512-.118 1.213.441 1.559s1.016-.074 1.016-.931c0-1.757-.6-2.015-1.457-.628m7.034 4.41c-1.968 2.401-3.577 4.656-3.577 5.012 0 1.531 3.017.461 4.443-1.576 1.503-2.145 1.557-2.059 1.557 2.5 0 2.598.42 4.723.933 4.723.974 0 8.067-8.224 8.067-9.353 0-1.531-3.017-.461-4.443 1.576-1.516 2.163-1.557 2.112-1.557-1.941 0-2.29-.416-4.421-.923-4.735s-2.533 1.394-4.5 3.794m-122.09 5.048c-2.743 1.865-6.337 4.83-7.987 6.591l-3 3.2 7.38-3.84c6.444-3.353 8.243-3.84 14.177-3.84 7.768 0 12.221 2.354 12.749 6.741.594 4.935-5.536 7.301-24.069 9.288-7.402.794-19.231 6.563-21.11 10.297-.741 1.471-1.654 3.955-2.03 5.52l-.683 2.846 4.793-3.984c8.22-6.833 13.255-8.809 25.934-10.181 10.547-1.142 15.523-2.684 19.574-6.065 2.821-2.356 3.285-3.379 3.285-7.247C111.5 74.908 104.658 70 93.776 70c-5.517 0-6.925.423-11.289 3.389m-47.998.629c-.451.73.874 2.816 3.382 5.324l4.124 4.124 3.234-3.233C47.526 77.936 47.996 77 46.853 77c-.884 0-2.186.696-2.891 1.546-1.129 1.36-1.733 1.107-5.008-2.091-2.573-2.512-3.953-3.266-4.465-2.437m182.604 5.386c-3.704 3.821-3.629 5.543.353 8.153 2.357 1.544 2.744 1.549 5.019.058 4.168-2.731 5.056-5.44 2.781-8.49-2.774-3.719-4.329-3.666-8.153.279m2.067 1.925c-2.01 2.14-2.072 2.499-.639 3.689 1.343 1.114 1.922.984 3.752-.846 1.939-1.939 2.005-2.323.639-3.689s-1.756-1.278-3.752.846M28 81.537C28 83.834 32.765 92 34.105 92c.561 0 .88-.831.708-1.846-.396-2.339 1.913-5.196 3.659-4.526.729.279 1.629.018 1.999-.581.712-1.153-4.41-3.685-9.524-4.708-2.383-.476-2.947-.247-2.947 1.198m3.656 3.008c.304.794.956 1.195 1.449.89 1.24-.766 1.126-1.132-.554-1.777q-1.45-.557-.895.887m-9.574 4.823C20.937 91.22 20 93.245 20 93.868c0 1.67 1.692 1.376 2.379-.414.502-1.307 1.171-1.152 4.339 1 4.196 2.851 5.288 3.12 5.27 1.296-.007-.687-1.545-2.242-3.418-3.455-2.556-1.655-3.273-2.716-2.871-4.25.834-3.19-1.314-2.404-3.617 1.323m203.003-.315-4.214 3.053 2.013 3.18c1.107 1.749 2.487 3.338 3.065 3.53 1.62.54 1.244-2.411-.491-3.851-1.118-.928-1.241-1.581-.446-2.373.793-.79 1.615-.406 2.974 1.393 2.38 3.151 3.838 1.921 1.661-1.402-.935-1.426-1.223-2.727-.68-3.063.52-.321 1.692.556 2.604 1.948 1.72 2.626 3.429 3.341 3.429 1.436 0-1.425-3.903-6.904-4.918-6.904-.43 0-2.679 1.374-4.997 3.053m-107.173 3.339c-16.454 4.727-30.184 18.809-33.851 34.72-5.414 23.484 10.042 48.037 34.307 54.498 7.475 1.99 20.263 1.76 27.507-.494 11.345-3.531 20.386-10.726 23.845-18.976 2.265-5.401 2.051-14.796-.445-19.64-4.048-7.853-9.404-10.5-21.243-10.5H140v-12.598l-3.556.415c-2.904.339-3.526.807-3.39 2.549.092 1.174.118 3.822.057 5.884L133 132h-4.5c-4.476 0-4.5.019-4.5 3.5s.024 3.5 4.5 3.5h4.5v13.781l3.5.409 3.5.408V139h7.55c11.927 0 16.45 3.709 16.45 13.49 0 8.615-5.251 15.443-15.5 20.156-7.945 3.653-21.545 4.488-29.646 1.82-11.695-3.851-19.962-11.202-25.214-22.419-2.677-5.717-3.066-7.64-3.067-15.171-.001-7.93.296-9.226 3.697-16.109 4.461-9.024 10.28-14.71 19.55-19.102 6.24-2.957 7.405-3.165 17.68-3.165 9.962 0 11.566.265 17 2.807 3.3 1.543 7.238 3.99 8.75 5.437l2.75 2.63v-4.232c0-5.367-2.532-8.044-10.563-11.166-7.283-2.832-24.221-3.683-31.525-1.584M17 97.983c0 1.255 9.548 6.136 10.378 5.305 1.295-1.294.501-2.309-3.338-4.268-4.292-2.189-7.04-2.594-7.04-1.037m176.5-.052c-7.187 1.73-11.115 5.99-10.04 10.889.351 1.596 2.961 5.777 5.801 9.291 7.561 9.358 11.586 16.527 12.929 23.032 1.115 5.397 1.28 5.631 2.62 3.718 3.453-4.93-1.52-16.856-12.394-29.717-5.401-6.388-5.658-9.789-.916-12.077 3.777-1.822 9.979-1.638 13.071.387 1.603 1.051 2.212 1.147 1.883.299-.535-1.381-6.087-5.383-8.454-6.094-.825-.248-2.85-.126-4.5.272m40 4.282c-4.903 1.725-5.486 2.528-4.301 5.927 1.336 3.835 4.425 5.334 8.105 3.935 3.359-1.277 4.114-3.034 3.261-7.583-.71-3.782-1.796-4.132-7.065-2.279m-217.863 1.293c-1.975 1.975-3.058 5.496-1.986 6.458 1.21 1.087 7.307 3.036 9.498 3.036 2.507 0 2.349-1.707-.234-2.527-1.59-.505-1.946-1.215-1.499-2.995.365-1.453-.007-2.927-.987-3.906-1.96-1.96-2.885-1.973-4.792-.066m218.581 1.905c-2.922.998-3.138 1.317-1.97 2.914 1.077 1.472 1.798 1.608 4.032.759 2.817-1.071 3.207-1.806 1.955-3.689-.536-.805-1.624-.801-4.017.016m-217.708.573c-.737 1.193.199 3.016 1.549 3.016 1.217 0 1.225-2.707.01-3.457-.512-.317-1.213-.118-1.559.441m100.724 2.472-3.266 2.749.266 26.565.266 26.564 2.812.937c1.547.516 3.017.734 3.266.485s.333-13.862.187-30.251l-.265-29.798zm99.311 3.29c1.545 4.549 2.111 20.768.898 25.754-1.087 4.47-5.052 11.974-9.136 17.29-3.175 4.133-3.533 4.361-2.92 1.867.384-1.564.952-4.661 1.263-6.882l.565-4.039-2.303 1.613c-1.447 1.014-2.801 3.568-3.647 6.882-1.346 5.276-6.852 15.234-12.015 21.729l-2.75 3.46 6.404-4.46c12.307-8.572 22.611-20.725 27.189-32.066 4.002-9.916 2.346-25.562-3.542-33.454-1.264-1.694-1.264-1.401-.006 2.306m-172.896 1.018c-7.847 12.43-8.79 16.771-6.112 28.133 3.406 14.449 14.967 29.513 29.512 38.455l6.265 3.851-6.407-6.453C53.15 162.895 46.704 145.09 49.983 130c1.051-4.836 2.038-19 1.324-19-.146 0-1.244 1.912-2.439 4.25-3.117 6.096-4.829 13.278-4.946 20.75-.096 6.109-.164 6.289-1.122 3-1.571-5.396-.429-19.789 2.007-25.296 2.51-5.675 2.061-6.039-1.158-.94m193.101 1.469c-3.083.638-4.75 1.503-4.75 2.463 0 1.178.867 1.345 4.25.819 6.333-.985 7.899-1.568 7.493-2.787-.515-1.544-1.569-1.618-6.993-.495M12.2 115.2c-1.708 1.708-1.484 5.319.428 6.906 1.414 1.174 1.989.918 4.39-1.959 1.922-2.301 2.993-2.938 3.517-2.091.453.734-.154 1.902-1.527 2.938-1.368 1.032-1.862 1.978-1.234 2.366 3.044 1.882 6.637-3.897 4.516-7.265-1.743-2.768-4.189-2.435-6.044.825-1.856 3.26-3.246 3.983-3.246 1.687 0-.766.675-1.652 1.5-1.969.825-.316 1.5-1.039 1.5-1.607 0-1.405-2.329-1.302-3.8.169m223.023 5.357c-4.494 3.147-1.733 10.443 3.951 10.443 5.367 0 7.926-7.416 3.603-10.443-1.222-.856-2.922-1.557-3.777-1.557s-2.555.701-3.777 1.557m.817 2.895c-1.047 1.261-1.047 1.835 0 3.096 2.005 2.416 5.46 1.436 5.46-1.548s-3.455-3.964-5.46-1.548m-224.385 4.377c-2.171 2.399-2.1 5.458.174 7.516 2.131 1.929 7.238 2.188 8.971.455 1.55-1.55 1.55-7.05 0-8.6-1.822-1.822-7.266-1.447-9.145.629m1.516 3.352c.261 1.837.952 2.319 3.329 2.319 2.333 0 3-.444 3-2 0-1.535-.773-2.074-3.329-2.319-2.981-.286-3.294-.077-3 2m219.779 3.912c-.616 1.151-.848 3.176-.516 4.5.849 3.384 5.191 3.324 6.748-.093 1.238-2.717 2.818-3.338 2.818-1.107 0 .766-.75 1.681-1.667 2.033-1.235.474-1.376.931-.543 1.764 1.862 1.862 4.362-1.009 4.011-4.605-.407-4.175-4.237-4.917-5.952-1.153-1.228 2.694-2.326 3.223-3.329 1.601-.329-.532.32-1.541 1.441-2.241 2.579-1.611 2.611-2.792.074-2.792-1.08 0-2.469.942-3.085 2.093m-215.45 4.39c-3.177.714-5 1.652-5 2.571 0 .926.81 1.333 2.25 1.133 2.969-.413 3.061 2.826.132 4.655-3.466 2.164-.826 3.192 4.626 1.801 3.078-.785 4.992-1.824 4.992-2.708 0-.856-.764-1.303-1.894-1.108-1.692.292-3.55-1.243-3.591-2.969-.008-.352 1.11-.924 2.485-1.269 2.409-.604 3.305-2.064 1.75-2.851-.413-.208-3 .127-5.75.745m221.208 7.775c1.751 1.961 1.734 1.99-.708 1.242-2.497-.765-2.498-.763-.574 1.391 2.135 2.389 3.112 1.906 4.08-2.016.575-2.33.354-2.625-1.971-2.625-2.55 0-2.572.052-.827 2.008M66.203 193.256c-.573.69-1.342 2.451-1.709 3.913-1.387 5.527 6.687 9.267 9.949 4.608 3.251-4.641.944-9.777-4.392-9.777-1.543 0-3.275.565-3.848 1.256m117.206.121c-.949 2.474.05 10.953 1.341 11.378.723.238 1.25-.439 1.25-1.604 0-2.403 3.506-3.806 5.459-2.185 1.015.842 1.543.84 2.067-.008.81-1.311-6.242-8.958-8.26-8.958-.731 0-1.567.62-1.857 1.377M67.99 196.018c-1.567 2.929-.503 5.194 2.256 4.802 1.764-.25 2.254-.969 2.254-3.306 0-3.676-2.839-4.618-4.51-1.496m10.233.286C77.08 197.769 75 203.802 75 205.649c0 2.119 2.127 1.58 2.721-.69.682-2.608 2.558-2.012 3.279 1.041.799 3.385 3 3.761 3 .512 0-1.46.647-3.302 1.439-4.094 1.252-1.251 1.361-.963.845 2.222-.464 2.859-.19 3.955 1.252 5.01 3.397 2.484 6.427 1.684 8.015-2.118.797-1.907 1.449-4.42 1.449-5.583 0-3.368-2.397-1.705-3.426 2.377-.664 2.633-1.47 3.674-2.844 3.674-1.726 0-1.849-.499-1.23-5 .652-4.739-.348-6.673-2.037-3.94-.427.691-1.057.533-1.809-.455-1.782-2.339-6.309-3.74-7.431-2.301m97.027-.269c-1.772.709-2.25 1.695-2.25 4.645v3.744l-2.902-3.462c-3.869-4.614-5.132-3.062-1.626 1.997 5.541 7.996 7.439 7.63 7.569-1.459l.071-5 1.694 4.167c1.976 4.861 2.705 5.753 4.031 4.934 1.08-.668-2.042-9.88-3.472-10.246-.476-.122-1.877.184-3.115.68m10.75 1.524c0 .857.457 1.276 1.016.931.559-.346.758-1.047.441-1.559-.857-1.387-1.457-1.129-1.457.628m-106 1.906c0 .868.869 1.535 2 1.535 1.1 0 2-.209 2-.465 0-.255-.9-.946-2-1.535-1.596-.854-2-.76-2 .465m83.383 3.527c.838 5.242 2.492 8.533 3.687 7.338 1.24-1.24-1.247-10.57-2.969-11.136-1.119-.368-1.263.392-.718 3.798m-64.868-1.016C97.252 204.02 96.703 213 97.842 213c.616 0 1.402-1.125 1.747-2.5.837-3.332 1.987-3.155 3.261.5 1.376 3.948 3.603 4.017 2.817.087-.365-1.828-.091-3.321.738-4.009 1.046-.868 1.225-.594.86 1.315-.546 2.855 2.711 6.607 5.735 6.607 2.541 0 6-3.412 6-5.918 0-5.23-4.504-8.292-8.421-5.726-1.899 1.244-2.423 1.189-4.476-.473-2.49-2.017-6.599-2.508-7.588-.907m56.013 3.274c1.132 6.829 1.932 7.765 5.714 6.681 1.784-.512 3.36-.931 3.501-.931s.257-.501.257-1.113c0-.662-1.184-.94-2.914-.686-2.76.405-2.949.199-3.562-3.887-.437-2.919-1.14-4.314-2.173-4.314-1.24 0-1.395.799-.823 4.25m-11.051-.856c-2.84 4.335.07 9.606 5.302 9.606 2.594 0 5.221-3.107 5.221-6.174 0-5.496-7.555-7.96-10.523-3.432m-42.477.137c0 .808.675 1.469 1.5 1.469s1.5-.402 1.5-.893-.675-1.152-1.5-1.469c-.914-.35-1.5-.001-1.5.893m31.198 4.159c.293 5.646.387 5.818 3.302 6.104 1.65.162 3.831-.314 4.847-1.057 1.575-1.153 1.718-2.007.973-5.794-.856-4.358-.955-4.449-5.148-4.753l-4.275-.31zm14.002-3.49c-1.638 1.638-1.506 3.351.406 5.263 1.859 1.859 4.394.483 4.394-2.385 0-1.635-1.797-4.078-3-4.078-.33 0-1.14.54-1.8 1.2m-35.129 1.667c-1.475 2.756-.284 5.305 2.306 4.936 1.622-.232 2.123-1.007 2.123-3.289 0-3.591-2.826-4.642-4.429-1.647m23.929-.398c0 .894.586 1.243 1.5.893.825-.317 1.5-.978 1.5-1.469s-.675-.893-1.5-.893-1.5.661-1.5 1.469m-11.333 3.198c-1.36 1.359-.595 2.333 1.833 2.333 2.793 0 3.353-1.459.918-2.393-1.958-.752-1.94-.752-2.751.06M135 211c0 .55.9 1 2 1s2-.45 2-1-.9-1-2-1-2 .45-2 1"/></svg>